<svg width="24" height="45" viewBox="0 0 24 45" fill="none" xmlns="http://www.w3.org/2000/svg">
<path d="M10.3803 18.4276C10.0731 18.5597 8.01831 19.9873 8.14289 20.1148C8.26746 20.2422 8.42649 20.1473 8.4895 20.1148C8.55252 20.0822 10.1229 19.262 10.4118 19.3685C10.7008 19.475 11.9559 20.0174 11.9559 20.1148C11.956 20.2121 11.1255 21.6838 11.0106 21.7695C9.97061 22.0291 10.0336 23.1972 10.8215 23.5541C11.5147 24.0408 12.4602 24.43 12.4602 24.43C12.4602 24.43 12.3026 24.6572 10.2858 27.1879C10.1999 27.2956 10.5224 27.269 10.6324 27.1879C12.7438 25.6305 13.4055 25.079 13.5631 24.7869C13.7207 24.4949 13.8869 24.1634 13.7207 23.9434C13.2795 23.3593 12.0505 22.5806 12.0505 22.5806C12.8613 21.7506 13.2021 21.2363 13.5631 20.2121C13.5631 20.2121 13.7207 19.6606 12.9329 19.2388C12.0073 18.7433 10.6875 18.2956 10.3803 18.4276Z" fill="#E30613"/>
<path d="M13.8152 20.9259C14.026 20.6073 14.0949 20.3993 14.0358 19.9201C14.0358 19.9201 14.8867 20.3743 15.0127 20.4068C15.1388 20.4392 16.6829 19.1414 16.872 19.109C17.061 19.0765 17.061 19.2712 16.998 19.3685C16.935 19.4659 15.1388 21.3477 15.0127 21.3802C14.8867 21.4126 14.2552 21.1911 13.8152 20.9259Z" fill="#E30613"/>
<path d="M14.8867 18.0058C14.8867 18.5613 14.4493 19.0116 13.9098 19.0116C13.3702 19.0116 12.9329 18.5613 12.9329 18.0058C12.9329 17.4503 13.3702 17 13.9098 17C14.4493 17 14.8867 17.4503 14.8867 18.0058Z" fill="#E30613"/>
<path d="M9.97062 23.3918C10.2603 23.7412 10.4671 23.8907 10.8845 24.1056C10.8845 24.1056 9.68701 25.6954 9.62398 25.6954C9.56096 25.6954 9.37188 24.9167 9.37188 24.9167C10.3803 24.9816 10.3488 23.9434 9.68701 23.9109L9.97062 23.3918Z" fill="#E30613"/>
<path d="M9.62398 24.6572C9.78062 24.6572 9.9076 24.5264 9.9076 24.3652C9.9076 24.2039 9.78062 24.0731 9.62398 24.0731C9.46734 24.0731 9.34037 24.2039 9.34037 24.3652C9.34037 24.5264 9.46734 24.6572 9.62398 24.6572Z" fill="#E30613"/>
<path d="M10.9718 22.625C11.0698 22.6881 11.0952 22.8502 11.0086 22.993C10.9219 23.1358 10.7693 23.1834 10.6712 23.1203C10.5731 23.0572 10.5477 22.8951 10.6344 22.7523C10.7211 22.6095 10.8737 22.5619 10.9718 22.625Z" fill="#E30613"/>
<path d="M11.4975 22.0913C11.58 22.1577 11.5946 22.2795 11.531 22.3631C11.4674 22.4468 11.3491 22.4614 11.2667 22.3949C11.1843 22.3285 11.1696 22.2068 11.2332 22.1231C11.2968 22.0395 11.4151 22.0249 11.4975 22.0913Z" fill="#E30613"/>
<path d="M11.9982 21.5299C12.0256 21.5519 12.0401 21.5937 12.0338 21.6511C12.0276 21.7079 12.0011 21.7745 11.9543 21.8361C11.9075 21.8977 11.851 21.9402 11.799 21.96C11.7464 21.9801 11.7035 21.9756 11.6762 21.9536C11.6488 21.9315 11.6342 21.8897 11.6405 21.8324C11.6467 21.7756 11.6732 21.7089 11.72 21.6473C11.7669 21.5857 11.8233 21.5433 11.8754 21.5234C11.928 21.5033 11.9709 21.5078 11.9982 21.5299Z" fill="#E30613"/>
<path d="M12.3638 20.894C12.4165 20.9214 12.4409 21.0043 12.4009 21.086C12.3609 21.1678 12.2817 21.1969 12.2289 21.1695C12.1762 21.1421 12.1517 21.0593 12.1917 20.9775C12.2318 20.8958 12.311 20.8666 12.3638 20.894Z" fill="#E30613"/>
<path d="M12.6492 20.6988C12.7015 20.6988 12.7438 20.6552 12.7438 20.6015C12.7438 20.5477 12.7015 20.5041 12.6492 20.5041C12.597 20.5041 12.5547 20.5477 12.5547 20.6015C12.5547 20.6552 12.597 20.6988 12.6492 20.6988Z" fill="#E30613"/>
<path d="M9.11967 25.234C9.24668 25.3191 9.2759 25.5223 9.16846 25.6924C9.06103 25.8625 8.86873 25.9174 8.74172 25.8324C8.61471 25.7473 8.5855 25.5441 8.69293 25.374C8.80037 25.2039 8.99266 25.149 9.11967 25.234Z" fill="#E30613"/>
<path d="M8.37941 26.1553C8.52377 26.2556 8.55066 26.494 8.42045 26.6927C8.29026 26.8913 8.06547 26.9549 7.92111 26.8546C7.77675 26.7543 7.74986 26.5159 7.88006 26.3172C8.01026 26.1186 8.23505 26.055 8.37941 26.1553Z" fill="#E30613"/>
<path d="M7.32734 27.3339C7.47354 27.3834 7.55367 27.5602 7.49845 27.7333C7.44323 27.9064 7.27685 27.9998 7.13066 27.9504C6.98446 27.9009 6.90433 27.7241 6.95955 27.5511C7.01476 27.378 7.18115 27.2845 7.32734 27.3339Z" fill="#E30613"/>
<path d="M6.44529 28.3058C6.59052 28.3502 6.67461 28.5366 6.61853 28.7311C6.56245 28.9256 6.39324 29.0345 6.248 28.9901C6.10276 28.9458 6.01867 28.7594 6.07475 28.5649C6.13083 28.3704 6.30005 28.2614 6.44529 28.3058Z" fill="#E30613"/>
<path d="M9.1828 21.6073H6.15756C6.07054 21.6073 6 21.6799 6 21.7695C6 21.8591 6.07054 21.9317 6.15756 21.9317H9.1828C9.26982 21.9317 9.34037 21.8591 9.34037 21.7695C9.34037 21.6799 9.26982 21.6073 9.1828 21.6073Z" fill="#E30613"/>
<path d="M8.48952 22.7753H6.85085C6.76383 22.7753 6.69328 22.848 6.69328 22.9375C6.69328 23.0271 6.76383 23.0998 6.85085 23.0998H8.48952C8.57654 23.0998 8.64708 23.0271 8.64708 22.9375C8.64708 22.848 8.57654 22.7753 8.48952 22.7753Z" fill="#E30613"/>
<path d="M18 22.945H16.0897L13.3929 25.9725L16.0897 29H18L15.3031 25.9725L18 22.945Z" fill="#E30613"/>
<rect x="0.5" y="0.5" width="23" height="44" rx="5.5" stroke="white"/>
</svg>
