<svg width="27" height="44" viewBox="0 0 27 44" fill="none" xmlns="http://www.w3.org/2000/svg">
<g clip-path="url(#clip0_44_2098)">
<path d="M19.7692 7H7.46154C6.10769 7 5 8.125 5 9.5V32C5 33.375 6.10769 34.5 7.46154 34.5H11.1538C11.1538 35.163 11.4132 35.7989 11.8748 36.2678C12.3364 36.7366 12.9625 37 13.6154 37C14.2682 37 14.8943 36.7366 15.356 36.2678C15.8176 35.7989 16.0769 35.163 16.0769 34.5H19.7692C21.1231 34.5 22.2308 33.375 22.2308 32V9.5C22.2308 8.125 21.1231 7 19.7692 7ZM19.7692 32H7.46154V9.5H19.7692V32Z" fill="#E30613"/>
<path d="M21 0.5H6C2.96243 0.5 0.5 2.96243 0.5 6V38C0.5 41.0376 2.96243 43.5 6 43.5H21C24.0376 43.5 26.5 41.0376 26.5 38V6C26.5 2.96243 24.0376 0.5 21 0.5Z" stroke="white"/>
</g>
<defs>
<clipPath id="clip0_44_2098">
<rect width="27" height="44" fill="white"/>
</clipPath>
</defs>
</svg>
