<svg width="447" height="1129" viewBox="0 0 447 1129" fill="none" xmlns="http://www.w3.org/2000/svg">
<path d="M388.981 1003.48C386.883 999.709 384.309 997.182 381.558 992.75C381.346 992.412 381.164 992.122 381.006 991.866C378.714 988.127 378.487 986.991 375.507 982.191C372.322 977.014 369.651 971.56 368.172 969.29C366.694 967.014 367.065 966.489 365.118 963.185C363.176 959.878 362.146 957.793 360.741 954.743C359.325 951.7 354.728 942.498 352.844 939.239C350.953 936.012 349.419 931.975 348.408 929.623C348.105 928.917 347.851 928.283 347.696 927.849C347.627 927.661 347.624 927.563 347.657 927.547C347.657 927.547 347.657 927.547 347.657 927.547C347.699 927.528 347.799 927.635 347.913 927.866C348.485 929.022 349.36 930.686 350.504 932.646C352.631 936.265 352.523 936.832 355.236 941.817C357.955 946.78 359.811 949.654 362.755 955.637C365.718 961.608 367.189 962.556 371.328 971.002C375.539 979.429 376.765 979.871 381.791 987.71C382.34 988.545 382.9 989.393 383.453 990.209C388.308 997.539 393.114 1006.34 395.801 1010.65C398.796 1015.5 402.779 1021.89 406.818 1028.86C410.834 1035.78 416.173 1044.14 420.512 1051.85C424.853 1059.57 431 1070.47 433.786 1075.55C436.573 1080.62 437.25 1081.84 440.176 1086.59C441.853 1089.3 444.032 1093.12 445.726 1096.46C446.554 1098.1 446.21 1097.84 445.196 1096.27C443.679 1093.92 442.602 1091.94 441.717 1090.84C439.92 1088.59 439.182 1087.65 437.559 1084.43C435.94 1081.22 434.629 1080.06 433.606 1078.21C432.604 1076.4 432.898 1076.26 427.273 1067.24C421.648 1058.23 418.616 1053.26 416.509 1049.84C414.402 1046.41 410.344 1039.06 406.887 1033.49C403.432 1027.9 396.646 1016.46 393.709 1011.96C390.796 1007.49 391.064 1007.24 388.981 1003.48ZM336.953 886.307C337.168 888.229 338.161 889.614 338.674 891.732C338.732 891.973 338.785 892.223 338.829 892.484C339.274 895.047 338.904 895.537 339.705 898.414C340.511 901.289 340.96 904.258 341.49 905.495C342.019 906.73 341.493 907.015 342.118 908.805C342.745 910.596 342.982 911.713 343.253 913.36C343.472 914.704 344.361 918.266 345.072 920.447C345.223 920.902 345.405 921.301 345.559 921.591C346.425 923.206 346.932 925.281 347.373 926.475C347.51 926.846 347.605 927.147 347.666 927.379C347.692 927.479 347.678 927.537 347.645 927.553C347.645 927.553 347.645 927.553 347.645 927.553C347.603 927.572 347.531 927.525 347.471 927.41C347.18 926.851 346.716 926.026 346.11 925.075C345.054 923.366 345.146 923.029 344.247 920.683C344.208 920.566 344.166 920.443 344.121 920.313C343.195 917.666 342.412 916.135 341.712 912.907C341.019 909.672 339.966 909.174 339.247 904.535C338.556 899.899 337.555 899.646 336.381 895.131C336.155 894.248 335.947 893.32 335.756 892.367C334.968 888.44 334.451 884.229 333.95 882.04C333.332 879.319 332.449 875.689 331.559 871.867C330.669 868.038 328.936 863.52 327.231 859.636C327.219 859.61 327.208 859.584 327.196 859.558C325.696 855.644 321.223 851.448 319.141 849.516C317.081 847.514 316.54 847.074 314.583 845.082C313.467 843.928 312.242 841.987 311.798 840.161C311.578 839.241 311.802 839.407 312.211 840.224C312.828 841.418 313.348 842.39 313.901 842.841C315.023 843.724 315.469 844.032 316.493 845.432C317.553 846.821 318.558 846.945 319.285 847.657C320.011 848.401 319.847 848.484 323.953 851.92C326.851 854.469 328.366 856.772 329.297 858.507C329.659 859.185 329.951 859.776 330.205 860.304C331.122 862.143 332.304 866.215 333.271 869.339C334.306 872.461 335.668 878.946 336.36 881.517C337.066 884.088 336.714 884.166 336.953 886.307ZM223.137 715.036C220.352 709.982 217.515 706.32 214.819 699.812C212.218 693.279 212.27 692.139 209.534 684.605C206.837 677.039 205.057 669.242 204.024 665.792C203.044 662.427 203.376 661.907 202.504 657.138C202.492 657.058 202.48 656.974 202.468 656.884C201.929 651.748 202.072 648.729 202.201 644.297C202.335 639.865 202.596 626.319 202.446 621.381C202.28 616.448 202.784 610.821 202.95 607.455C203.001 606.384 203.06 605.567 203.116 604.932C203.14 604.668 203.18 604.55 203.218 604.55C203.218 604.55 203.218 604.55 203.218 604.55C203.264 604.552 203.305 604.737 203.303 605.08C203.294 606.763 203.317 609.268 203.43 612.243C203.647 617.773 203.287 618.373 203.357 625.841C203.445 633.305 203.711 637.802 203.58 646.561C203.542 651.045 203.739 653.83 204.18 656.929C204.716 659.81 205.582 663.331 206.883 669.185C209.77 681.208 211.034 682.221 215.485 693.638C219.93 705.05 227.061 718.927 232.333 724.029C232.56 724.268 232.792 724.507 233.028 724.743C238.162 729.913 245.272 736.27 252.734 743.038C260.548 750.137 270.515 758.603 278.547 767.142C286.687 775.544 296.99 788.547 301.186 794.907C305.447 801.227 306.442 802.82 310.403 808.983C312.652 812.517 315.526 817.652 317.582 822.065C318.635 824.325 318.229 823.89 316.994 821.723C315.205 818.601 313.779 815.933 312.685 814.449C310.439 811.406 309.508 810.138 307.208 806.057C304.859 801.947 303.144 800.428 301.647 798.166C300.048 795.915 300.619 795.577 291.714 784.837C282.654 774.262 277.09 769.014 273.326 765.316C269.553 761.623 261.67 753.932 255.136 748.284C248.91 742.892 236.686 731.906 231.283 726.465C231.028 726.216 230.787 725.975 230.562 725.745C225.632 720.371 226.08 720.001 223.137 715.036ZM66.6757 881.038C64.8399 893.324 64.6826 903.337 64.9822 918.438C65.7533 933.523 65.4844 935.96 69.584 952.876C74.1874 969.667 79.5792 986.413 81.4026 994.031C82.6594 998.717 82.9203 1000.84 83.4956 1004.4C83.8342 1006.57 84.2762 1009.29 84.9202 1013.5C86.526 1024.49 86.8524 1031.24 87.0501 1040.94C87.4735 1050.66 86.5306 1080.39 85.8853 1091.22C85.4464 1102.02 83.9724 1114.35 83.3235 1121.69C83.1162 1124.06 82.962 1125.76 82.8396 1127.22C82.79 1127.81 82.7416 1128.05 82.7043 1128.05C82.7043 1128.05 82.7042 1128.05 82.7042 1128.05C82.6585 1128.04 82.6301 1127.66 82.6677 1126.89C82.8485 1123.17 83.2263 1117.7 83.5798 1111.2C84.2059 1099.05 84.7402 1097.79 85.4751 1081.42C86.0415 1065.06 86.0891 1055.21 85.4799 1035.99C84.8485 1022.52 83.8237 1016.35 81.6444 1004.76C80.6571 999.818 79.3546 993.872 77.3083 986.049C70.3646 959.813 66.8484 957.701 62.8976 930.582C60.4833 911.329 62.8639 888.569 66.0102 871.345C67.2988 864.09 68.7223 857.816 69.8728 853.079C73.6932 837.128 80.6576 815.983 92.0844 795.621C98.3349 784.372 106.374 772.177 115.786 760.785C123.47 751.535 132.481 743.397 141.067 735.83C152.482 725.727 167.315 713.759 178.16 701.574C185.431 693.273 188.86 683.693 190.653 677.284C193.038 668.256 193.484 662.777 193.407 657.062L193.407 657.05C193.415 652.549 193.396 647.813 193.348 640.779C193.284 631.535 193.344 618.801 193.578 608.045C193.695 602.632 193.859 603.859 193.937 609.307C194.052 617.275 193.975 623.815 194.18 627.92C194.589 636.124 194.746 639.61 194.508 649.966C194.446 652.659 194.437 654.981 194.456 657.05L194.455 657.022C194.628 662.999 194.337 666.887 193.527 671.346C192.937 674.256 192.565 675.724 191.31 679.869C189.812 683.855 188.429 691.339 179.379 702.628C178.876 703.219 178.343 703.831 177.786 704.458C156.484 726.828 142.826 736.776 134.594 744.953C130.422 748.901 123.878 754.897 117.633 762.312C111.275 769.884 104.887 778.7 99.9453 786.79C89.2908 802.464 75.0779 838.336 72.2882 853.583C69.9969 863.601 69.3575 866.983 68.3525 871.745C67.8545 874.23 67.3408 876.804 66.6757 881.038ZM246.067 117.414C238.9 135.767 234.901 154.829 238.173 172.851C239.43 178.77 240.29 185.064 239.779 191.051L239.013 190.026C241.844 190.843 244.68 191.661 247.527 192.481L246.13 193.28C248.972 181.62 251.377 169.58 251.394 157.05C250.305 140.368 243.688 120.789 251.292 101.077C253.938 93.1515 256.755 84.9617 260.36 76.6476C265.863 64.9749 271.52 51.6744 284.263 51.1469C313.357 54.9232 331.431 77.016 326.781 101.721C324.411 120.345 315.793 140.609 306.682 169.244C305.988 172.73 305.314 176.393 304.674 180.162C302.891 192.886 299.365 207.256 302.475 218.371C304.805 220.98 308.379 222.623 311.796 223.032L311.911 223.048C311.944 223.138 312.662 222.729 313.067 222.1C313.51 221.487 313.88 220.725 314.19 219.945C314.809 218.376 315.232 216.657 315.561 214.958C316.217 211.506 316.52 208.015 316.699 204.501C318.13 188.191 310.522 172.595 313.752 156.886C316.805 142.351 319.497 125.358 333.444 119.16C341.351 116.679 350.025 115.033 357.341 118.28C364.666 121.474 368.659 128.235 371.067 134.207C374.309 142.287 377.064 149.447 379.084 155.592C382.095 164.787 383.789 172.647 382.707 179.7C378.061 196.678 369.385 205.758 361.915 228.159C360.668 236.178 359.36 245.606 358.101 257.152C357.864 259.346 357.641 261.49 357.441 263.619L357.214 263.018C360.125 265.747 362.96 268.406 365.728 271.002L365.772 271.048C374.878 257.305 372.974 235.296 372.939 219.079C372.276 206.965 377.514 193.661 389.319 188.495C400.74 182.983 416.486 188.36 422.554 201.09C424.625 205.049 426.178 210.145 426.744 215.996C430.659 239.555 421.316 273.288 421.091 308.988C424.499 344.262 423.208 381.806 424.57 413.534C424.749 436.806 421.077 456.752 419.178 470.865C410.529 528.556 395.121 593.477 384.464 632.015C381.171 644.028 378.371 653.456 376.148 660.649C375.205 663.695 374.74 665.055 374.704 665.048C374.704 665.048 374.704 665.048 374.704 665.048C374.66 665.029 375.282 662.889 376.465 658.942C382.181 639.917 389.92 611.207 397.617 576.975C410.605 512.949 415.864 506.352 423.777 418.44C423.794 416.944 423.772 415.022 423.7 413.573C422.197 374.589 423.315 342.064 419.959 309.173C418.451 279.972 429.482 251.333 425.38 216.134C424.568 203.514 416.017 188.436 400.588 187.803C382.109 187.078 373.175 205.735 374.463 219.023C374.841 229.17 374.753 238.682 373.954 247.821C373.542 252.405 372.964 256.87 372 261.297C371.512 263.501 370.94 265.682 370.118 267.835C369.7 268.907 369.243 269.956 368.566 270.99C368.231 271.482 367.838 272.023 367.194 272.459C366.868 272.67 366.422 272.883 365.849 272.839C365.284 272.795 364.831 272.478 364.541 272.152L364.595 272.206C361.768 269.566 358.933 266.917 356.065 264.237L355.729 263.921L355.773 263.462C356.854 252.179 358.264 240.561 360.171 227.89C364.218 212.338 375.083 198.134 380.63 179.388C382.233 165.788 375.335 151 369.266 134.928C366.555 127.936 361.499 120.724 353.307 118.9C346.705 117.361 340.045 119.073 333.965 120.896C319.993 127.78 318.182 145.201 315.505 157.186C312.463 174.721 320.145 189.925 318.545 204.591C318.366 208.322 318.049 211.976 317.364 215.541C317.012 217.329 316.578 219.09 315.891 220.805C315.546 221.653 315.134 222.511 314.548 223.308C313.949 224.031 313.199 225.11 311.535 224.929L311.636 224.943C307.538 224.447 303.769 222.687 301.009 219.674C296.622 202.206 301.882 186.538 304.56 168.82C309.607 148.82 320.447 128.982 324.311 101.327C326.619 88.8774 322.448 73.9318 310.07 64.5683C302.762 58.8909 293.521 54.715 284.155 54.0464C275.011 54.1267 269.409 64.8315 265.109 73.4239C260.788 82.519 257.405 92.243 254.123 102.021C247.17 119.649 252.613 137.895 254.156 157.05C254.074 169.668 251.571 181.968 248.574 193.891L248.218 195.311L246.816 194.898C243.978 194.059 241.145 193.222 238.319 192.387L237.318 192.092L237.319 191.051C237.86 184.901 237.065 179.209 235.869 173.328C232.434 153.419 237.303 133.902 244.013 116.571C253.137 94.5099 258.707 72.1215 258.516 51.0505C257.99 17.046 218.616 4.76686 200.346 16.0259C193.259 19.3793 186.909 24.7212 181.609 31.2782C165.081 52.3115 176.256 83.1712 174.912 112.551C174.696 132.176 174.754 152.248 171.889 173.371C170.516 177.965 167.705 181.567 164.576 184.916L164.216 185.274L163.711 185.274C156.932 185.275 150.097 185.275 143.211 185.276L142.348 185.275L142.057 184.465C136.5 166.559 133.246 145.861 142.13 127.493C153.735 107.422 163.039 84.7465 159.099 60.9311C157.64 49.7099 154.398 38.5332 150.14 27.4629C136.065 -10.9512 78.2874 -0.873591 54.1275 27.7677C33.2178 53.7586 26.5155 87.9981 16.8702 120.394C7.56473 152.506 20.2947 186.028 16.9102 219.16C15.3061 241.336 9.15634 262.465 6.24565 283.644C5.40088 289.053 4.59506 294.573 3.81359 300.202C-2.89687 365.948 17.0071 441.987 25.4951 512.945C35.7355 588.767 41.6092 659.022 43.8317 703.621C47.7561 793.609 47.5543 815.686 44.809 902.31C43.7418 928.942 41.8921 960.757 39.2565 993.578C37.0513 1022.18 33.2651 1051.36 33.4303 1078.44C33.5718 1093.07 36.3155 1098.39 35.5639 1096.81C34.7969 1095.32 32.75 1086.35 33.044 1071.63C33.7174 1040.91 37.1313 1014.31 38.5554 993.523C39.1928 985.113 39.6887 977.872 40.0796 971.483C42.5833 927.393 43.6199 908.554 45.1643 852.77C46.3187 797.003 44.9449 770.645 43.9132 738.165C41.6511 705.74 46.6162 705.848 27.4979 541.485C26.2692 531.8 25.0256 522.373 23.7758 513.176C10.8427 420.141 -5.01465 352.721 1.52135 299.887C5.0515 270.302 11.7014 246.386 13.8097 225.309C14.0323 223.247 14.2371 221.177 14.4419 218.934C18.4138 193.744 4.74459 158.791 14.5405 119.703C23.7745 89.4997 30.2333 53.9153 52.3131 26.3479C72.6412 3.2423 107.823 -7.3197 134.242 5.555C141.987 9.63221 148.753 17.1623 152.305 26.6283C164.813 54.6189 166.825 96.2172 144.281 128.602C136.06 145.242 138.742 165.844 144.351 183.64L143.211 182.838C150.057 182.838 156.897 182.837 163.711 182.836L162.852 183.191C165.71 180.161 168.426 176.559 169.537 172.73C172.235 152.616 172.291 131.825 172.481 112.551C173.589 81.6852 162.888 50.227 179.713 29.7405C185.472 22.5913 192.156 17.2582 198.856 14.006C219.432 4.13494 238.02 12.097 247.499 20.9495C257.415 30.1774 260.981 41.0999 260.966 51.0505C260.652 69.4103 258.444 86.9082 246.074 117.396C246.072 117.402 246.069 117.408 246.067 117.414ZM349.533 810.738C349.237 816.558 350.065 821.222 349.863 828.356C349.664 835.527 349.187 836.551 349.219 844.756C349.253 852.944 348.87 861.12 349.034 864.771C349.199 868.416 348.615 868.796 348.706 873.973C348.798 879.143 348.701 882.292 348.482 886.804C348.261 891.333 348.012 905.222 348.214 910.298C348.416 915.352 347.98 921.13 347.866 924.577C347.83 925.683 347.785 926.523 347.739 927.158C347.719 927.427 347.681 927.55 347.644 927.55C347.644 927.55 347.644 927.55 347.644 927.55C347.598 927.549 347.553 927.359 347.55 927.012C347.53 925.313 347.47 922.723 347.32 919.677C347.04 913.991 347.389 913.398 347.275 905.728C347.162 898.049 346.87 893.468 347.139 884.458C347.408 875.447 346.553 873.379 347.143 860.657C347.736 847.935 346.837 846.615 346.837 833.924C346.845 824.718 347.184 813.694 347.505 805.517C347.63 802.472 347.61 799.761 347.588 797.673C347.439 790.024 347.565 779.696 348.963 768.858C350.279 758.103 352.361 744.754 355.125 733.173C357.841 721.504 362.367 705.181 364.642 697.703C366.886 690.281 367.45 688.467 369.464 681.178C370.605 677.064 372.377 671.373 374.092 666.603C374.965 664.172 374.946 664.786 374.26 667.28C373.255 670.942 372.354 673.668 371.97 675.661C371.238 679.538 370.985 680.937 369.37 685.644C367.803 690.209 367.707 692.556 366.887 695.263C366.105 697.921 365.697 697.832 362.337 711.717C359.028 725.658 357.469 733.373 356.42 738.657C355.36 743.968 352.984 754.975 351.932 763.793C350.645 772.512 349.606 790.374 350.054 797.615C350.186 801.849 350.098 803.658 349.921 805.584C349.798 806.83 349.656 808.362 349.533 810.738ZM368.806 623.374C368.678 621.711 367.554 620.621 367.246 618.613C366.94 616.633 367.33 616.226 366.704 613.991C366.08 611.772 365.836 609.448 365.397 608.482C364.963 607.54 365.502 607.297 365.009 605.892C364.528 604.536 364.364 603.61 364.226 602.351C364.087 601.07 363.2 597.189 362.598 595.903C361.986 594.568 361.938 592.915 361.756 591.93C361.7 591.625 361.672 591.378 361.661 591.186C361.657 591.105 361.683 591.059 361.718 591.049C361.718 591.049 361.718 591.049 361.718 591.049C361.763 591.036 361.822 591.078 361.856 591.175C362.02 591.645 362.294 592.334 362.688 593.113C363.414 594.542 363.148 594.863 363.872 596.882C364.607 598.951 365.259 600.126 365.708 602.638C366.159 605.184 367.15 605.524 367.545 609.154C367.921 612.773 368.895 612.941 369.807 616.433C370.72 619.936 371.112 624.495 371.538 626.633C371.972 628.768 372.569 631.633 372.9 634.703C373.235 637.768 374.015 641.512 374.163 644.919C374.321 648.327 374.467 653.127 374.462 655.35C374.458 657.572 374.457 658.109 374.727 660.233C374.881 661.442 374.943 663.133 374.811 664.574C374.745 665.305 374.57 665.151 374.44 664.431C374.251 663.381 374.266 662.526 374.021 661.989C373.535 660.933 373.345 660.491 373.479 659.102C373.614 657.731 373.023 657.108 373.023 656.318C373.018 655.515 373.351 655.505 372.753 651.478C372.147 647.456 371.839 645.261 371.611 643.744C371.385 642.226 371.275 639.015 370.822 636.555C370.389 634.095 369.657 629.071 369.114 627.088C368.582 625.108 368.93 625.043 368.806 623.374ZM342.563 247.927C351.744 257.297 359.283 264.575 368.005 278.114C375.868 291.128 376.866 293.897 383.13 308.685C383.443 309.465 383.766 310.286 384.101 311.156C390.699 328.325 393.914 346.459 395.608 354.405C397.235 362.374 396.858 363.324 398.609 374.738C400.272 386.171 400.898 393.159 401.554 403.239C402.394 413.281 403.444 444.33 403.236 455.609C403.291 466.795 402.13 479.814 400.511 487.378C400.011 489.725 399.451 491.6 398.741 492.877C398.416 493.445 398.234 493.561 398.207 493.546C398.207 493.546 398.207 493.546 398.207 493.546C398.171 493.503 398.358 493.27 398.733 492.464C400.202 489.046 400.928 483.145 401.382 476.47C402.011 463.799 402.429 462.521 402.327 445.428C401.98 428.345 401.258 418.164 399.752 398.149C397.879 378.182 396.923 373.648 391.933 345.816C388.163 327.23 385.408 319.992 381.109 309.488C378.853 304.225 376.261 298.472 371.8 290.322C358.911 265.27 332.989 240.163 318.82 230.919C305.035 221.104 284.847 210.216 262.146 202.271C239.504 194.101 210.154 188.44 183.669 186.305C157.237 183.595 119.399 185.822 102.379 188.984C85.2821 191.995 80.9873 192.865 65.247 198.465C56.3849 201.923 43.7898 207.257 36.701 216.087C34.9755 218.374 34.6398 219.283 34.6804 218.976C34.7781 218.676 35.3638 217.156 37.2713 214.78C42.7992 208.282 48.8774 205.373 52.7048 203.053C60.0608 198.95 63.6502 197.324 73.9557 194.293C84.4572 191.402 89.3631 189.903 95.5025 188.709C101.886 187.834 101.541 186.911 133.494 183.977C165.53 181.828 183.141 183.851 195.24 184.971C207.358 186.095 232.41 190.535 251.374 196.341C270.687 201.151 307.26 218.773 320.17 228.854C333.383 238.374 333.105 238.837 342.563 247.927Z" fill="white" fill-opacity="0.8"/>
<path d="M105.415 95.8797C109.94 95.5834 113.447 95.1727 118.878 94.2474C121.301 93.7964 122.807 93.4369 124.128 92.87C125.774 92.0796 127.486 91.3596 130.045 89.0436C132.69 86.6322 134.168 83.2765 135.063 80.501C135.595 78.4091 135.725 76.508 135.872 75.2915C136.146 72.502 136.273 72.2207 136.617 68.2325C136.947 64.277 137.152 61.8548 137.455 58.3813C137.766 54.9059 138.557 44.2064 138.774 40.3234C139 36.4049 139.351 32.0317 139.536 29.3302C139.564 28.9273 139.593 28.5158 139.615 28.2228C139.643 27.8277 139.658 27.6359 139.68 27.3284C139.688 27.2313 139.694 27.1772 139.702 27.0911C139.708 27.0388 139.71 27.0531 139.713 27.0506C139.713 27.0506 139.713 27.0506 139.713 27.0506C139.724 27.0042 139.72 27.1886 139.705 27.449C139.628 28.7717 139.514 30.7689 139.39 33.1218C139.16 37.4435 139.071 37.9655 138.696 43.838C138.312 49.736 138.117 53.2734 137.54 60.1999C136.91 67.1232 137.084 68.7213 135.787 78.474C135.661 79.2377 135.551 79.9474 135.347 80.5955C132.782 87.5491 131.347 89.5521 124.315 93.2713C124.006 93.4191 123.545 93.5956 123.192 93.7125C113.65 96.3681 101.219 96.4756 95.3483 96.6347C89.4639 96.6933 81.491 96.7402 73.2429 95.2791C71.1063 94.8583 68.7502 94.3471 66.6199 93.2179C60.3812 90.1898 56.2478 82.8596 56.1386 76.0003C56.0531 74.744 56.031 73.4145 56.0371 72.0505C56.9119 63.3721 59.5583 53.247 60.6374 48.1612C61.9885 42.2919 62.3256 40.8736 63.6274 35.2172C64.3734 31.9863 65.444 27.5218 66.3971 23.7525C66.8831 21.8342 66.7895 22.3316 66.3491 24.2056C65.6955 26.9915 65.13 29.312 64.8252 30.7436C64.2067 33.6503 63.9491 34.8528 63.0618 38.4918C62.1814 42.112 61.8797 43.8474 61.3894 45.9658C60.9152 48.0894 60.8039 48.0281 58.5575 58.8582C57.4655 64.3871 56.5719 68.6456 56.405 72.0505C56.3985 75.3615 56.6332 77.8501 57.0581 79.8402C57.5188 83.4058 61.0201 90.1066 66.8027 92.8855C67.5745 93.3093 68.4471 93.6442 69.2761 93.9101C75.7702 96.1121 89.7506 96.3836 95.3109 96.2243C100.891 96.0768 100.913 96.1145 105.415 95.8797ZM101.588 124.798C102.958 124.664 104.016 124.382 105.681 124.176C107.348 123.967 107.607 124.01 109.505 123.711C111.408 123.409 113.307 123.157 114.153 122.987C114.993 122.816 115.09 122.899 116.295 122.675C117.478 122.453 118.222 122.337 119.266 122.186C120.331 122.034 123.533 121.483 124.703 121.225C125.858 120.972 127.206 120.786 128.01 120.65C128.262 120.608 128.461 120.576 128.615 120.554C128.68 120.545 128.711 120.546 128.712 120.552C128.712 120.552 128.712 120.552 128.712 120.552C128.714 120.559 128.669 120.575 128.586 120.592C128.184 120.673 127.588 120.799 126.897 120.958C125.594 121.255 125.446 121.225 123.676 121.578C121.918 121.927 120.861 122.172 118.764 122.504C116.669 122.831 116.217 123.059 113.251 123.457C110.284 123.845 110.003 124.042 107.052 124.485C104.1 124.928 100.357 125.296 98.5706 125.493C96.7857 125.695 94.3859 125.953 91.8459 126.142C89.3079 126.334 86.1675 126.597 83.3607 126.708C80.555 126.827 76.5831 126.929 74.7471 126.951C72.901 126.975 72.467 126.979 70.6978 127.037C69.6847 127.07 68.2896 127.087 67.1007 127.067C66.4988 127.056 66.6357 127.027 67.2395 127.005C68.1234 126.971 68.8221 126.971 69.2805 126.928C70.191 126.842 70.5566 126.808 71.7015 126.821C72.8481 126.833 73.3619 126.728 74.0364 126.72C74.7019 126.709 74.6896 126.773 78.0559 126.609C81.4272 126.437 83.2563 126.323 84.5396 126.242C85.8092 126.162 88.4725 126.039 90.5451 125.858C92.6169 125.689 96.827 125.306 98.5165 125.085C100.207 124.871 100.216 124.928 101.588 124.798ZM220.343 97.2783C221.392 97.2342 222.207 97.0247 223.483 96.9433C224.764 96.8604 224.96 96.9226 226.417 96.7809C227.879 96.6381 229.338 96.5599 229.993 96.468C230.635 96.3771 230.713 96.4674 231.638 96.3599C232.552 96.2531 233.121 96.2119 233.927 96.1667C234.744 96.1211 237.216 95.9079 238.12 95.7795C239.014 95.6527 240.051 95.6171 240.671 95.5712C240.865 95.5569 241.019 95.5483 241.138 95.5436C241.188 95.5416 241.211 95.5455 241.212 95.5517C241.212 95.5517 241.212 95.5517 241.212 95.5517C241.213 95.5593 241.178 95.5704 241.114 95.5778C240.803 95.6135 240.342 95.672 239.807 95.7532C238.801 95.9053 238.686 95.8591 237.321 96.02C235.96 96.1799 235.15 96.3125 233.531 96.4319C231.92 96.5494 231.564 96.7295 229.287 96.8538C227.009 96.9749 226.786 97.1466 224.522 97.3552C222.26 97.5636 219.392 97.6906 218.026 97.7885C216.66 97.8885 214.825 98.0229 212.886 98.1091C210.946 98.1964 208.554 98.3597 206.409 98.4068C204.266 98.4567 201.24 98.5015 199.839 98.5052C198.434 98.5099 198.101 98.5105 196.751 98.5567C195.979 98.583 194.914 98.5925 194.008 98.568C193.549 98.5558 193.654 98.5269 194.114 98.5064C194.788 98.4763 195.32 98.4795 195.67 98.4389C196.364 98.3577 196.641 98.3263 197.517 98.3475C198.389 98.3684 198.785 98.2687 199.297 98.2667C199.803 98.2635 199.796 98.3218 202.363 98.2058C204.933 98.0864 206.333 98.0183 207.309 97.9691C208.281 97.9202 210.31 97.8757 211.894 97.7749C213.477 97.6788 216.697 97.4975 217.991 97.379C219.287 97.2627 219.292 97.3214 220.343 97.2783ZM207.202 113.262C208.082 113.366 208.771 113.271 209.853 113.369C210.906 113.463 211.088 113.553 212.299 113.614C213.538 113.677 214.749 113.803 215.304 113.805C215.848 113.806 215.898 113.906 216.68 113.931C217.46 113.957 217.92 113.997 218.604 114.069C219.277 114.141 221.363 114.295 222.123 114.305C222.895 114.315 223.738 114.437 224.263 114.488C224.426 114.503 224.554 114.519 224.652 114.532C224.693 114.538 224.712 114.545 224.712 114.552C224.712 114.552 224.712 114.552 224.712 114.552C224.711 114.559 224.681 114.565 224.627 114.562C224.366 114.55 223.977 114.536 223.521 114.535C222.673 114.532 222.577 114.468 221.429 114.423C220.287 114.379 219.587 114.39 218.237 114.274C216.891 114.159 216.566 114.285 214.667 114.087C212.769 113.888 212.559 114.028 210.651 113.92C208.749 113.813 206.356 113.539 205.217 113.436C204.059 113.335 202.539 113.2 200.919 112.961C199.305 112.723 197.305 112.447 195.557 111.952C193.811 111.502 191.434 110.455 190.551 109.624C189.678 108.83 189.474 108.594 188.969 107.574C188.693 106.975 188.564 106.045 188.668 105.299C188.721 104.912 188.735 105.008 188.722 105.392C188.71 105.935 188.754 106.401 188.843 106.673C189.033 107.209 189.118 107.425 189.427 108.057C189.768 108.682 190.088 108.854 190.377 109.145C190.7 109.391 190.553 109.59 192.479 110.523C194.436 111.353 195.615 111.553 196.399 111.746C197.202 111.932 198.842 112.292 200.162 112.464C201.477 112.651 204.152 112.959 205.249 113.027C206.32 113.097 206.345 113.158 207.202 113.262ZM226.414 55.7321C228.493 55.8612 230.16 55.7822 232.687 55.6364C234.578 55.4747 235.323 55.4455 236.636 54.8997C237.065 54.6901 237.555 54.4357 238.153 54.0721C240.705 52.6362 242.469 50.2426 243.004 49.0694C243.469 48.1494 243.638 47.901 244.105 46.9972C244.209 46.7984 244.307 46.4957 244.38 46.1422C244.697 44.3422 244.699 43.2025 244.774 41.5974C244.862 39.9816 244.723 35.0143 244.565 33.2103C244.428 31.413 244.35 29.3564 244.266 28.1114C244.241 27.7308 244.222 27.4144 244.209 27.1854C244.204 27.0938 244.206 27.0356 244.213 27.0504C244.213 27.0504 244.213 27.0504 244.213 27.0504C244.217 27.0521 244.22 27.0398 244.228 27.0999C244.233 27.1219 244.239 27.166 244.246 27.2449C244.302 27.8547 244.388 28.7699 244.493 29.8534C244.682 31.8798 244.646 32.0941 244.81 34.8305C244.952 37.5673 245.086 39.2064 244.981 42.4397C244.855 44.4644 244.949 45.5261 244.369 47.1291C243.939 47.9849 243.49 49.0725 242.523 50.489C240.218 53.468 239.165 53.888 236.812 55.2518C236.248 55.5425 235.563 55.7382 234.73 55.89C230.166 56.6287 224.435 55.9579 221.721 55.7115C219.001 55.4424 215.349 54.9811 211.546 54.2172C208.813 53.643 205.609 53.0256 202.627 51.7348C201.484 51.2061 200.367 50.686 199.3 50.1149C198.021 49.4247 196.494 48.5131 195.559 47.0497C194.626 45.6057 194.121 43.9876 193.607 42.5885C193.153 41.2857 192.996 40.0789 192.903 39.204C192.687 36.4135 192.745 35.7272 192.878 33.0415C192.975 31.4975 193.234 29.3831 193.585 27.615C193.767 26.7336 193.751 26.9444 193.608 27.8334C193.404 29.153 193.259 30.229 193.215 30.9163C193.138 32.283 193.103 32.863 192.986 34.5844C192.887 36.3064 193.011 37.12 193.06 38.1189C193.184 38.982 192.841 39.1613 193.843 42.5029C194.009 42.9505 194.193 43.4438 194.414 44.0028C196.06 49.0434 199.565 49.6189 201.116 50.5702C201.559 50.7795 202.138 51.0513 202.8 51.3598C204.665 52.2236 207.449 52.9577 209.727 53.4454C212.814 54.1523 219.165 55.1044 221.748 55.3011C224.329 55.5216 224.328 55.5749 226.414 55.7321ZM294.912 87.9193C296.586 88.0534 297.918 87.9842 299.949 88.0337C301.692 88.0422 302.183 88.1526 303.672 87.8907C303.935 87.8259 304.224 87.7539 304.558 87.6674C306.835 87.1642 309.048 86.2197 309.437 85.2081C309.86 84.319 310.017 84.221 310.09 82.7653C310.09 82.6935 310.09 82.6219 310.089 82.5505C310.024 81.2324 309.757 80.3842 309.426 79.2033C309.105 77.9513 307.562 74.2684 306.883 72.9938C306.228 71.7042 305.536 70.1991 305.085 69.315C304.942 69.035 304.838 68.8262 304.753 68.6556C304.715 68.5799 304.703 68.5445 304.713 68.55C304.713 68.55 304.713 68.55 304.713 68.55C304.713 68.5342 304.75 68.5849 304.801 68.6773C305.04 69.1087 305.394 69.75 305.819 70.5213C306.597 71.9504 306.634 72.1301 307.581 74.1089C308.498 76.1014 309.105 77.2883 309.841 79.7779C310.154 80.9332 310.334 81.6946 310.368 82.5505C310.33 83.4819 310.513 84.9061 308.906 86.2924C306.496 87.7928 305.499 87.6834 303.764 88.2579C303.16 88.4181 302.448 88.4811 301.556 88.5159C297.897 88.6223 293.331 88.1544 291.146 87.9917C288.962 87.8212 286.032 87.5667 282.945 87.2069C280.763 86.9395 278.174 86.7092 275.663 86.2474C274.638 85.9933 273.677 85.4865 272.936 84.7862C271.978 83.9116 271.274 82.5192 271.066 81.0749C270.876 78.5395 271.372 76.0979 271.542 74.6903C271.878 72.4777 271.973 71.9415 272.304 69.8123C272.496 68.5885 272.8 66.9148 273.105 65.4985C273.259 64.7876 273.254 64.9566 273.132 65.6784C272.957 66.7252 272.79 67.5954 272.73 68.1402C272.61 69.2305 272.556 69.6953 272.296 71.0568C272.038 72.4216 272.034 73.0785 271.909 73.8764C271.81 74.676 271.654 74.6504 271.342 78.7371C271.3 79.5796 271.277 80.372 271.382 81.0222C271.858 83.6467 273.347 84.7607 274.354 85.304C274.709 85.4917 275.188 85.7007 275.763 85.8471C277.342 86.1683 279.606 86.4408 281.449 86.6487C283.961 86.933 289.097 87.4504 291.167 87.5811C293.238 87.7183 293.242 87.7767 294.912 87.9193ZM281.549 120.083C282.238 120.39 282.842 120.467 283.693 120.809C284.544 121.149 284.646 121.27 285.642 121.609C286.639 121.948 287.613 122.337 288.067 122.457C288.525 122.578 288.533 122.683 289.175 122.873C289.809 123.06 290.196 123.2 290.734 123.406C291.285 123.618 292.969 124.176 293.608 124.33C294.236 124.483 294.929 124.764 295.351 124.907C295.483 124.952 295.587 124.991 295.666 125.022C295.699 125.035 295.713 125.046 295.712 125.052C295.712 125.052 295.712 125.052 295.712 125.052C295.709 125.059 295.682 125.059 295.638 125.046C295.422 124.987 295.1 124.902 294.721 124.817C294.006 124.653 293.952 124.577 292.999 124.311C292.058 124.046 291.47 123.917 290.38 123.53C289.286 123.137 288.99 123.196 287.466 122.591C285.946 121.979 285.734 122.065 284.194 121.524C282.654 120.981 280.77 120.144 279.859 119.773C278.947 119.406 277.724 118.907 276.459 118.32C275.193 117.735 273.611 117.055 272.243 116.353C270.874 115.655 268.951 114.637 268.073 114.152C267.185 113.663 266.98 113.549 266.113 113.119C265.616 112.871 264.946 112.508 264.389 112.17C264.108 111.998 264.187 112.009 264.485 112.152C264.921 112.361 265.255 112.551 265.492 112.637C265.965 112.808 266.156 112.879 266.691 113.201C267.231 113.526 267.52 113.573 267.845 113.752C268.165 113.927 268.13 113.975 269.794 114.767C271.461 115.557 272.374 115.983 273.009 116.276C273.637 116.567 274.941 117.231 275.983 117.682C277.023 118.14 279.137 119.067 280.011 119.391C280.883 119.719 280.862 119.774 281.549 120.083ZM279.095 126.731C279.768 127.041 280.355 127.118 281.174 127.464C281.998 127.81 282.093 127.931 283.056 128.283C284.015 128.633 284.964 129.049 285.393 129.176C285.828 129.305 285.845 129.416 286.459 129.622C287.064 129.825 287.436 129.977 287.956 130.203C288.467 130.426 290.093 131.053 290.704 131.235C291.32 131.42 291.958 131.724 292.368 131.89C292.494 131.941 292.593 131.985 292.669 132.02C292.701 132.034 292.714 132.046 292.712 132.052C292.712 132.052 292.712 132.052 292.712 132.052C292.709 132.059 292.683 132.057 292.64 132.043C292.433 131.972 292.123 131.873 291.756 131.769C291.076 131.576 291.023 131.495 290.11 131.189C289.215 130.889 288.636 130.733 287.602 130.313C286.55 129.885 286.257 129.932 284.805 129.297C283.336 128.652 283.129 128.735 281.646 128.18C280.163 127.625 278.338 126.794 277.448 126.424C276.567 126.062 275.376 125.569 274.151 124.98C272.924 124.39 271.407 123.699 270.113 122.911C268.813 122.146 267.104 120.877 266.42 120.158C265.736 119.452 265.576 119.273 265.018 118.509C264.702 118.063 264.367 117.376 264.242 116.754C264.181 116.442 264.222 116.508 264.319 116.808C264.468 117.246 264.619 117.595 264.757 117.791C265.04 118.178 265.159 118.328 265.486 118.831C265.822 119.324 266.091 119.464 266.327 119.718C266.575 119.952 266.489 120.056 267.928 121.1C269.399 122.108 270.278 122.551 270.865 122.875C271.462 123.199 272.699 123.889 273.702 124.342C274.701 124.806 276.756 125.723 277.603 126.044C278.456 126.371 278.426 126.422 279.095 126.731ZM352.381 152.369C354.122 152.195 355.463 151.88 357.576 151.613C359.686 151.333 360.03 151.391 362.406 150.947C362.49 150.93 362.606 150.904 362.671 150.887C364.896 150.29 366.74 148.801 367.343 147.991C367.942 147.135 368.203 147.112 368.572 145.652C368.579 145.611 368.586 145.571 368.592 145.531C368.707 144.117 368.513 143.188 368.36 141.889C368.207 140.555 367.343 136.498 366.932 135.047C366.538 133.594 366.167 131.909 365.914 130.915C365.833 130.594 365.774 130.355 365.729 130.164C365.71 130.084 365.704 130.041 365.713 130.05C365.713 130.05 365.713 130.05 365.713 130.05C365.717 130.035 365.74 130.09 365.772 130.202C365.913 130.695 366.126 131.433 366.381 132.3C366.854 133.925 366.85 134.117 367.405 136.332C367.94 138.552 368.315 139.879 368.689 142.548C368.841 143.827 368.967 144.625 368.868 145.577C368.711 146.579 368.257 147.772 366.711 149.081C364.967 150.446 363.941 150.836 362.755 151.223C361.872 151.448 360.893 151.625 359.294 151.87C355.56 152.437 350.806 152.908 348.541 153.144C346.274 153.379 343.231 153.706 339.988 153.794C339.108 153.811 338.158 153.829 337.193 153.741C334.629 153.494 331.725 153.022 329.493 151.562C328.513 150.946 327.519 150.097 326.603 149.159C324.82 146.755 325.352 143.66 325.322 142.128C325.465 139.801 325.544 139.238 325.808 137.011C325.968 135.74 326.263 133.979 326.594 132.515C326.765 131.778 326.754 131.953 326.618 132.703C326.426 133.789 326.263 134.697 326.207 135.26C326.098 136.405 326.051 136.881 325.84 138.304C325.638 139.732 325.679 140.416 325.616 141.251C325.631 142.079 325.258 142.095 325.74 146.304C325.934 147.391 326.259 148.353 326.837 148.926C328.582 150.652 329.953 151.447 331.021 151.923C332.245 152.53 334.843 153.162 337.231 153.363C337.601 153.4 337.997 153.415 338.376 153.42C340.989 153.473 346.344 152.991 348.486 152.736C350.632 152.483 350.643 152.538 352.381 152.369ZM404.948 214.47C406.239 214.487 407.258 214.325 408.818 214.212C409.94 214.113 410.39 214.099 411.158 213.888C411.466 213.792 411.825 213.672 412.293 213.485C413.983 212.867 415.44 211.794 415.857 211.114C416.196 210.623 416.332 210.484 416.604 209.996C416.674 209.87 416.728 209.659 416.742 209.407C416.758 208.291 416.59 207.604 416.417 206.629C416.255 205.642 415.377 202.695 414.959 201.656C414.56 200.614 414.183 199.4 413.919 198.674C413.841 198.455 413.774 198.266 413.729 198.133C413.711 198.08 413.704 198.043 413.713 198.05C413.713 198.05 413.713 198.05 413.713 198.05C413.717 198.038 413.738 198.073 413.773 198.158C413.915 198.506 414.131 199.032 414.392 199.656C414.872 200.819 414.87 200.961 415.435 202.56C415.98 204.165 416.355 205.119 416.749 207.088C416.938 208.364 417.218 208.995 416.87 210.13C416.612 210.657 416.25 211.309 415.483 211.998C413.577 213.478 412.945 213.592 411.284 214.267C410.948 214.388 410.563 214.477 410.108 214.554C407.289 214.987 403.741 214.813 402.051 214.793C400.359 214.762 398.087 214.691 395.696 214.487C394.913 214.419 394.055 214.346 393.188 214.242C391.42 214.008 389.45 213.838 387.825 212.945C386.824 212.419 385.931 211.317 385.576 210.096C385.095 208.335 385.194 206.597 385.188 205.584C385.232 203.855 385.264 203.436 385.34 201.773C385.388 200.822 385.501 199.505 385.653 198.404C385.731 197.844 385.743 197.977 385.699 198.538C385.637 199.363 385.57 200.031 385.571 200.457C385.575 201.311 385.575 201.668 385.479 202.732C385.388 203.799 385.467 204.304 385.445 204.925C385.461 205.542 385.256 205.551 385.577 208.681C385.647 209.162 385.737 209.611 385.871 209.998C386.627 212.186 388.139 212.705 389.018 213.03C389.883 213.344 391.591 213.665 393.235 213.863C393.677 213.919 394.114 213.964 394.538 214C396.475 214.18 400.451 214.387 402.051 214.382C403.652 214.385 403.654 214.442 404.948 214.47ZM400.908 235.201C401.405 235.365 401.838 235.32 402.452 235.472C403.068 235.621 403.147 235.717 403.868 235.823C404.586 235.926 405.306 236.07 405.629 236.075C405.955 236.08 405.979 236.181 406.439 236.204C406.902 236.226 407.178 236.261 407.578 236.321C407.98 236.384 409.213 236.472 409.67 236.444C410.118 236.419 410.634 236.495 410.943 236.515C411.04 236.521 411.117 236.528 411.176 236.536C411.2 236.539 411.212 236.545 411.212 236.552C411.212 236.552 411.212 236.552 411.212 236.552C411.212 236.559 411.194 236.567 411.162 236.567C411.006 236.571 410.774 236.581 410.505 236.604C409.993 236.645 409.946 236.588 409.256 236.591C408.574 236.591 408.153 236.624 407.354 236.532C406.55 236.433 406.353 236.567 405.228 236.349C404.109 236.117 403.967 236.248 402.842 236.057C401.716 235.864 400.344 235.411 399.688 235.215C399.029 235.024 398.147 234.749 397.246 234.384C396.344 234.021 395.22 233.599 394.262 233.116C393.302 232.638 391.968 231.916 391.366 231.567C390.759 231.217 390.611 231.13 390.014 230.831C389.667 230.656 389.209 230.395 388.831 230.142C388.64 230.014 388.699 230.015 388.906 230.115C389.21 230.261 389.439 230.4 389.605 230.452C389.942 230.558 390.082 230.603 390.441 230.84C390.808 231.081 391.026 231.094 391.244 231.219C391.467 231.346 391.429 231.395 392.593 231.935C393.754 232.468 394.402 232.75 394.842 232.939C395.289 233.132 396.194 233.576 396.934 233.848C397.669 234.13 399.177 234.669 399.804 234.82C400.427 234.977 400.413 235.033 400.908 235.201ZM348.034 179.822C348.746 180.062 349.352 180.075 350.23 180.315C351.111 180.549 351.228 180.657 352.253 180.858C353.278 181.055 354.302 181.291 354.765 181.338C355.228 181.384 355.264 181.489 355.918 181.57C356.581 181.652 356.969 181.721 357.54 181.833C358.11 181.947 359.867 182.197 360.521 182.231C361.162 182.267 361.893 182.414 362.332 182.477C362.469 182.497 362.578 182.515 362.661 182.531C362.697 182.538 362.712 182.546 362.712 182.552C362.712 182.552 362.712 182.552 362.712 182.552C362.711 182.559 362.685 182.564 362.639 182.56C362.416 182.542 362.085 182.519 361.699 182.505C360.966 182.476 360.904 182.412 359.919 182.322C358.946 182.231 358.348 182.21 357.212 182.015C356.074 181.814 355.788 181.924 354.193 181.563C352.603 181.187 352.406 181.303 350.811 180.963C349.216 180.62 347.262 179.963 346.33 179.66C345.395 179.365 344.143 178.944 342.858 178.408C341.573 177.877 339.98 177.23 338.612 176.53C337.242 175.839 335.338 174.787 334.482 174.282C333.62 173.776 333.401 173.645 332.564 173.192C332.073 172.926 331.426 172.541 330.884 172.177C330.61 171.994 330.689 172.008 330.98 172.164C331.405 172.391 331.733 172.595 331.96 172.687C332.425 172.876 332.62 172.957 333.133 173.292C333.661 173.635 333.957 173.695 334.264 173.875C334.582 174.058 334.539 174.11 336.185 174.931C337.83 175.742 338.745 176.162 339.375 176.449C340.009 176.739 341.303 177.375 342.359 177.789C343.405 178.215 345.56 179.019 346.452 179.267C347.34 179.523 347.327 179.579 348.034 179.822Z" fill="white"/>
<g filter="url(#filter0_ii_81_138)">
<path d="M71.2119 411.551C71.2119 377.861 98.5225 350.551 132.212 350.551H267.212C300.901 350.551 328.212 377.861 328.212 411.551V543.551C328.212 577.24 300.901 604.551 267.212 604.551H132.212C98.5225 604.551 71.2119 577.24 71.2119 543.551V411.551Z" fill="#2C2C2C" fill-opacity="0.01"/>
</g>
<path d="M210.268 348.65C217.523 348.495 231.512 348.558 239.206 348.593C239.348 348.594 239.489 348.594 239.63 348.595C241.456 348.603 243.183 348.605 245.207 348.608C249.671 348.613 255.583 348.62 267.212 348.699C268.191 348.705 269.204 348.734 270.251 348.792C274.325 348.982 278.383 349.568 282.344 350.548C309.679 356.908 330.47 383.531 329.921 411.551C329.876 427.316 329.823 443.081 329.766 458.847C329.766 459.387 329.767 459.936 329.768 460.491C329.784 471.217 329.804 484.516 329.747 492.873C329.676 503.497 329.609 510.713 329.551 516.639C329.519 525.61 329.487 534.58 329.457 543.551C329.729 569.246 312.216 593.767 288.007 602.039C281.341 604.402 274.283 605.596 267.212 605.59C263.512 605.588 259.812 605.587 256.113 605.587C246.31 605.587 236.505 605.592 226.702 605.601C220.993 605.635 215.565 605.675 210.532 605.712C203.46 605.764 197.163 605.81 191.962 605.825C179.431 605.862 165.217 605.804 154.661 605.762C152.936 605.755 151.307 605.748 149.8 605.742C143.938 605.757 138.075 605.773 132.212 605.789C129.63 605.795 127.068 605.646 124.509 605.337C123.943 605.255 123.376 605.163 122.802 605.062C115.712 603.693 106.586 601.632 95.1403 593.317C90.2384 589.651 85.0035 584.67 80.3886 577.676C77.4563 573.147 76.4069 570.552 75.5247 568.48C75.2715 567.864 75.0442 567.285 74.82 566.697C74.0526 564.677 73.2516 562.542 72.4857 559.963C71.5073 556.617 70.5368 552.49 70.3001 546.941C70.2532 545.771 70.2394 544.645 70.252 543.551C70.4293 528.504 70.2785 521.473 70.1626 516.067C70.1261 514.368 70.0932 512.828 70.0749 511.252C70.0156 506.14 70.0744 498.858 70.155 493.354C70.2189 488.989 70.1556 480.258 70.0749 473.636C70.0444 471.132 70.0437 467.746 70.0429 463.758C70.0422 459.63 70.0415 454.855 70.0073 449.747C69.9209 436.837 69.879 429.977 69.8454 424.462C69.8359 422.889 69.8272 421.425 69.8181 419.962C69.8024 417.434 69.7882 414.574 69.7747 411.551C69.763 408.975 69.9108 406.306 70.2402 403.623C71.0698 396.545 73.3551 389.588 75.7208 384.623C81.8895 371.738 92.6075 361.137 105.518 355.106C112.141 351.965 119.095 350.443 124.21 350.056C129.343 349.664 132.213 350.133 132.212 350.435C132.209 350.79 129.358 350.965 124.438 351.823C119.526 352.677 112.957 354.419 106.638 357.471C93.8825 363.539 83.4455 374.279 77.7464 387.163C74.3361 394.811 72.5887 403.181 72.6118 411.551C72.6276 420.529 72.6367 429.508 72.6367 438.486C72.6367 450.756 72.6289 463.025 72.6148 475.294C72.6133 476.557 72.6117 477.821 72.6101 479.084C72.6912 489.391 72.765 499.679 72.7913 506.927C72.813 512.912 72.7697 517.275 72.7327 521.011C72.7072 523.583 72.6847 525.858 72.6882 528.16C72.6902 529.396 72.6952 531.085 72.7012 533.122C72.7097 536 72.7202 539.573 72.7271 543.551C72.6878 550.887 74.288 559.622 77.5622 567.18C79.7248 572.321 83.0811 577.953 87.1222 582.671C92.8437 589.501 99.8759 594.18 103.569 596.114C110.022 599.646 118.173 602.27 125.593 603.067C127.902 603.332 130.129 603.45 132.212 603.458C136.556 603.473 140.219 603.474 142.645 603.437C146.95 603.372 150.622 603.398 156.081 603.438C159.868 603.465 164.515 603.499 170.83 603.512C178.122 603.528 183.28 603.574 187.665 603.613C193.836 603.668 198.479 603.709 205.399 603.633C213.086 603.549 221.12 603.495 227.447 603.522C230.329 603.534 233.626 603.531 237.056 603.528C241.597 603.524 246.373 603.519 250.734 603.55C254.328 603.575 257.298 603.639 259.927 603.695C260.747 603.713 261.534 603.73 262.296 603.745C263.934 603.744 265.573 603.744 267.212 603.743C268.429 603.742 269.627 603.706 270.835 603.633C271.293 603.596 271.772 603.551 272.27 603.498C274.772 603.227 277.834 602.76 281.538 601.819C287.391 600.307 292.342 598.284 297.216 595.528C300.997 593.367 304.737 590.732 308.514 587.148C311.089 584.706 313.767 581.658 316.067 578.382C319.517 573.531 322.026 568.187 323.441 564.371C323.977 562.946 324.423 561.703 324.827 560.472C324.829 560.466 324.831 560.461 324.832 560.455C324.86 560.371 324.887 560.287 324.914 560.203C326.456 554.792 327.219 549.179 327.198 543.551C327.184 539.167 327.169 534.784 327.153 530.401C327.143 529.527 327.133 528.643 327.123 527.767C327.074 523.486 327.026 519.327 326.959 516.615C326.886 513.676 326.843 506.286 326.798 498.499C326.769 493.4 326.738 488.128 326.698 483.824C326.674 481.308 326.715 478.921 326.758 476.465C326.798 474.174 326.839 471.821 326.829 469.25C326.824 467.962 326.806 466.57 326.788 465.086C326.772 463.779 326.755 462.397 326.744 460.95C326.735 459.605 326.757 456.611 326.786 452.772C326.804 450.399 326.824 447.704 326.84 444.874C326.814 437.396 326.79 429.916 326.767 422.438C326.73 420.878 326.683 419.524 326.623 418.452C326.579 417.683 326.528 417.028 326.475 416.356C326.402 415.441 326.328 414.494 326.269 413.189C326.245 412.665 326.228 412.093 326.22 411.551C326.213 411.051 326.207 410.58 326.208 410.199C326.208 409.835 326.216 409.555 326.222 409.301C326.229 409.011 326.233 408.752 326.216 408.436C326.204 408.206 326.178 407.968 326.144 407.677C326.089 407.211 326.016 406.607 325.926 405.692C325.591 402.269 324.886 398.413 323.801 394.742C322.61 390.655 320.948 386.819 319.378 383.9C317.646 380.62 314.797 376.118 311.269 372.141C308.826 369.355 306.093 366.821 303.586 364.855C301.133 362.923 298.394 361.147 295.624 359.658C292.299 357.863 288.931 356.486 286.019 355.472C285.43 355.266 284.706 354.98 283.791 354.648C283.142 354.413 282.383 354.152 281.517 353.89C277.688 352.943 273.763 352.38 269.82 352.206C269.681 352.207 269.538 352.208 269.395 352.21C269.392 352.21 269.39 352.21 269.388 352.211C268.717 352.219 267.994 352.24 267.212 352.274C264.149 352.406 260.236 352.521 255.163 352.418C253.536 352.385 252.512 352.324 251.59 352.27C250.684 352.216 249.874 352.167 248.689 352.157C247.343 352.146 245.754 352.179 244.021 352.215C241.589 352.265 238.871 352.322 236.145 352.269C235.958 352.266 235.758 352.262 235.55 352.258C233.573 352.22 230.647 352.165 227.736 352.054C219.098 352.024 210.459 351.989 201.821 351.951C187.423 351.888 173.021 351.816 158.624 351.743C151.619 351.708 144.902 351.556 139.949 351.313C134.995 351.07 132.212 350.758 132.212 350.435C132.212 350.112 134.996 349.799 139.949 349.556C144.902 349.314 151.619 349.162 158.624 349.126C170.046 349.069 181.471 349.012 192.895 348.959C193.493 348.952 194.095 348.946 194.693 348.94C199.146 348.894 203.278 348.803 207.413 348.712C208.363 348.691 209.314 348.67 210.268 348.65Z" fill="url(#paint0_linear_81_138)"/>
<g filter="url(#filter1_di_81_138)">
<rect x="89.2119" y="365.551" width="221" height="218" rx="41" fill="#191919" fill-opacity="0.01" shape-rendering="crispEdges"/>
<rect x="89.2619" y="365.601" width="220.9" height="217.9" rx="40.95" stroke="black" stroke-opacity="0.01" stroke-width="0.1" shape-rendering="crispEdges"/>
</g>
<g filter="url(#filter2_dii_81_138)">
<circle cx="200.212" cy="401.551" r="9" fill="#FF2431"/>
</g>
<g filter="url(#filter3_ii_81_138)">
<path d="M189.913 450.878C188.086 451.649 175.871 459.976 176.611 460.72C177.352 461.463 178.297 460.91 178.672 460.72C179.046 460.53 188.382 455.746 190.1 456.367C191.818 456.988 199.28 460.152 199.28 460.72C199.28 461.288 194.343 469.873 193.66 470.373C187.477 471.887 187.852 478.701 192.535 480.783C196.657 483.622 202.277 485.892 202.277 485.892C202.277 485.892 201.341 487.217 189.351 501.98C188.84 502.608 190.757 502.453 191.411 501.98C203.964 492.895 207.898 489.678 208.835 487.974C209.771 486.271 210.759 484.337 209.771 483.053C207.148 479.647 199.842 475.104 199.842 475.104C204.662 470.263 206.688 467.262 208.835 461.288C208.835 461.288 209.771 458.071 205.088 455.61C199.585 452.72 191.739 450.108 189.913 450.878Z" fill="#AAAAAA" fill-opacity="0.1"/>
<path d="M210.333 465.452C211.587 463.593 211.996 462.38 211.645 459.584C211.645 459.584 216.703 462.234 217.452 462.423C218.202 462.613 227.382 455.042 228.506 454.853C229.63 454.664 229.63 455.799 229.255 456.367C228.88 456.935 218.202 467.912 217.452 468.101C216.703 468.291 212.949 466.998 210.333 465.452Z" fill="#AAAAAA" fill-opacity="0.1"/>
<path d="M216.703 448.418C216.703 451.658 214.103 454.285 210.895 454.285C207.688 454.285 205.088 451.658 205.088 448.418C205.088 445.177 207.688 442.551 210.895 442.551C214.103 442.551 216.703 445.177 216.703 448.418Z" fill="#AAAAAA" fill-opacity="0.1"/>
<path d="M187.477 479.836C189.199 481.874 190.429 482.746 192.91 484C192.91 484 185.791 493.274 185.416 493.274C185.042 493.274 183.918 488.731 183.918 488.731C189.913 489.11 189.725 483.053 185.791 482.864L187.477 479.836Z" fill="#AAAAAA" fill-opacity="0.1"/>
<path d="M185.416 487.217C186.348 487.217 187.102 486.455 187.102 485.514C187.102 484.573 186.348 483.811 185.416 483.811C184.485 483.811 183.73 484.573 183.73 485.514C183.73 486.455 184.485 487.217 185.416 487.217Z" fill="#AAAAAA" fill-opacity="0.1"/>
<path d="M182.418 490.582C183.173 491.078 183.347 492.264 182.708 493.256C182.07 494.249 180.926 494.569 180.171 494.073C179.416 493.577 179.243 492.391 179.881 491.399C180.52 490.407 181.663 490.086 182.418 490.582Z" fill="#AAAAAA" fill-opacity="0.1"/>
<path d="M178.017 495.957C178.876 496.542 179.035 497.932 178.261 499.091C177.487 500.25 176.151 500.621 175.293 500.036C174.434 499.451 174.275 498.06 175.049 496.901C175.823 495.742 177.159 495.371 178.017 495.957Z" fill="#AAAAAA" fill-opacity="0.1"/>
<path d="M171.763 502.832C172.632 503.12 173.108 504.152 172.78 505.161C172.452 506.171 171.463 506.716 170.593 506.428C169.724 506.139 169.248 505.108 169.576 504.098C169.904 503.089 170.894 502.543 171.763 502.832Z" fill="#AAAAAA" fill-opacity="0.1"/>
<path d="M166.519 508.501C167.382 508.76 167.882 509.847 167.549 510.982C167.215 512.116 166.209 512.752 165.346 512.493C164.483 512.234 163.983 511.147 164.316 510.012C164.649 508.878 165.655 508.242 166.519 508.501Z" fill="#AAAAAA" fill-opacity="0.1"/>
<path d="M235.212 477.229H223.855L207.822 494.89L223.855 512.551H235.212L219.179 494.89L235.212 477.229Z" fill="#AAAAAA" fill-opacity="0.1"/>
</g>
<path d="M198.712 477.551V479.051H201.712V477.551H200.212H198.712ZM201.273 237.49C200.687 236.904 199.737 236.904 199.151 237.49L189.605 247.036C189.02 247.622 189.02 248.571 189.605 249.157C190.191 249.743 191.141 249.743 191.727 249.157L200.212 240.672L208.697 249.157C209.283 249.743 210.233 249.743 210.819 249.157C211.404 248.571 211.404 247.622 210.819 247.036L201.273 237.49ZM200.212 477.551H201.712L201.712 238.551L200.212 238.551L198.712 238.551L198.712 477.551H200.212Z" fill="#FF3B30"/>
<path d="M200.212 476.051L198.712 476.051L198.712 479.051L200.212 479.051L200.212 477.551L200.212 476.051ZM440.273 478.611C440.858 478.025 440.858 477.076 440.273 476.49L430.727 466.944C430.141 466.358 429.191 466.358 428.605 466.944C428.02 467.53 428.02 468.479 428.605 469.065L437.091 477.551L428.605 486.036C428.02 486.622 428.02 487.571 428.605 488.157C429.191 488.743 430.141 488.743 430.727 488.157L440.273 478.611ZM200.212 477.551L200.212 479.051L439.212 479.051L439.212 477.551L439.212 476.051L200.212 476.051L200.212 477.551Z" fill="#34C759"/>
<circle cx="200.212" cy="477.551" r="18.5" stroke="#007AFF" stroke-width="3"/>
<circle cx="200.212" cy="477.551" r="10" fill="#007AFF"/>
<defs>
<filter id="filter0_ii_81_138" x="69.7739" y="346.551" width="260.157" height="264.286" filterUnits="userSpaceOnUse" color-interpolation-filters="sRGB">
<feFlood flood-opacity="0" result="BackgroundImageFix"/>
<feBlend mode="normal" in="SourceGraphic" in2="BackgroundImageFix" result="shape"/>
<feColorMatrix in="SourceAlpha" type="matrix" values="0 0 0 0 0 0 0 0 0 0 0 0 0 0 0 0 0 0 127 0" result="hardAlpha"/>
<feOffset dy="-2"/>
<feGaussianBlur stdDeviation="5"/>
<feComposite in2="hardAlpha" operator="arithmetic" k2="-1" k3="1"/>
<feColorMatrix type="matrix" values="0 0 0 0 0 0 0 0 0 0 0 0 0 0 0 0 0 0 0.3 0"/>
<feBlend mode="normal" in2="shape" result="effect1_innerShadow_81_138"/>
<feColorMatrix in="SourceAlpha" type="matrix" values="0 0 0 0 0 0 0 0 0 0 0 0 0 0 0 0 0 0 127 0" result="hardAlpha"/>
<feOffset dy="5"/>
<feGaussianBlur stdDeviation="5"/>
<feComposite in2="hardAlpha" operator="arithmetic" k2="-1" k3="1"/>
<feColorMatrix type="matrix" values="0 0 0 0 1 0 0 0 0 1 0 0 0 0 1 0 0 0 0.6 0"/>
<feBlend mode="normal" in2="effect1_innerShadow_81_138" result="effect2_innerShadow_81_138"/>
</filter>
<filter id="filter1_di_81_138" x="65.2119" y="341.551" width="269" height="266" filterUnits="userSpaceOnUse" color-interpolation-filters="sRGB">
<feFlood flood-opacity="0" result="BackgroundImageFix"/>
<feColorMatrix in="SourceAlpha" type="matrix" values="0 0 0 0 0 0 0 0 0 0 0 0 0 0 0 0 0 0 127 0" result="hardAlpha"/>
<feMorphology radius="4" operator="dilate" in="SourceAlpha" result="effect1_dropShadow_81_138"/>
<feOffset/>
<feGaussianBlur stdDeviation="10"/>
<feComposite in2="hardAlpha" operator="out"/>
<feColorMatrix type="matrix" values="0 0 0 0 0 0 0 0 0 0 0 0 0 0 0 0 0 0 1 0"/>
<feBlend mode="normal" in2="BackgroundImageFix" result="effect1_dropShadow_81_138"/>
<feBlend mode="normal" in="SourceGraphic" in2="effect1_dropShadow_81_138" result="shape"/>
<feColorMatrix in="SourceAlpha" type="matrix" values="0 0 0 0 0 0 0 0 0 0 0 0 0 0 0 0 0 0 127 0" result="hardAlpha"/>
<feMorphology radius="1" operator="erode" in="SourceAlpha" result="effect2_innerShadow_81_138"/>
<feOffset dy="-2"/>
<feGaussianBlur stdDeviation="5"/>
<feComposite in2="hardAlpha" operator="arithmetic" k2="-1" k3="1"/>
<feColorMatrix type="matrix" values="0 0 0 0 0 0 0 0 0 0 0 0 0 0 0 0 0 0 1 0"/>
<feBlend mode="normal" in2="shape" result="effect2_innerShadow_81_138"/>
</filter>
<filter id="filter2_dii_81_138" x="180.612" y="381.951" width="39.2" height="39.2" filterUnits="userSpaceOnUse" color-interpolation-filters="sRGB">
<feFlood flood-opacity="0" result="BackgroundImageFix"/>
<feColorMatrix in="SourceAlpha" type="matrix" values="0 0 0 0 0 0 0 0 0 0 0 0 0 0 0 0 0 0 127 0" result="hardAlpha"/>
<feMorphology radius="3" operator="dilate" in="SourceAlpha" result="effect1_dropShadow_81_138"/>
<feOffset/>
<feGaussianBlur stdDeviation="3.8"/>
<feComposite in2="hardAlpha" operator="out"/>
<feColorMatrix type="matrix" values="0 0 0 0 1 0 0 0 0 0.142628 0 0 0 0 0.193062 0 0 0 0.5 0"/>
<feBlend mode="normal" in2="BackgroundImageFix" result="effect1_dropShadow_81_138"/>
<feBlend mode="normal" in="SourceGraphic" in2="effect1_dropShadow_81_138" result="shape"/>
<feColorMatrix in="SourceAlpha" type="matrix" values="0 0 0 0 0 0 0 0 0 0 0 0 0 0 0 0 0 0 127 0" result="hardAlpha"/>
<feOffset dy="2"/>
<feGaussianBlur stdDeviation="2"/>
<feComposite in2="hardAlpha" operator="arithmetic" k2="-1" k3="1"/>
<feColorMatrix type="matrix" values="0 0 0 0 1 0 0 0 0 0.463141 0 0 0 0 0.463141 0 0 0 1 0"/>
<feBlend mode="normal" in2="shape" result="effect2_innerShadow_81_138"/>
<feColorMatrix in="SourceAlpha" type="matrix" values="0 0 0 0 0 0 0 0 0 0 0 0 0 0 0 0 0 0 127 0" result="hardAlpha"/>
<feOffset dy="-2"/>
<feGaussianBlur stdDeviation="2"/>
<feComposite in2="hardAlpha" operator="arithmetic" k2="-1" k3="1"/>
<feColorMatrix type="matrix" values="0 0 0 0 0.711538 0 0 0 0 0 0 0 0 0 0.0418552 0 0 0 0.4 0"/>
<feBlend mode="normal" in2="effect2_innerShadow_81_138" result="effect3_innerShadow_81_138"/>
</filter>
<filter id="filter3_ii_81_138" x="163.212" y="441.551" width="73" height="72" filterUnits="userSpaceOnUse" color-interpolation-filters="sRGB">
<feFlood flood-opacity="0" result="BackgroundImageFix"/>
<feBlend mode="normal" in="SourceGraphic" in2="BackgroundImageFix" result="shape"/>
<feColorMatrix in="SourceAlpha" type="matrix" values="0 0 0 0 0 0 0 0 0 0 0 0 0 0 0 0 0 0 127 0" result="hardAlpha"/>
<feOffset dx="1" dy="1"/>
<feGaussianBlur stdDeviation="1"/>
<feComposite in2="hardAlpha" operator="arithmetic" k2="-1" k3="1"/>
<feColorMatrix type="matrix" values="0 0 0 0 0 0 0 0 0 0 0 0 0 0 0 0 0 0 0.4 0"/>
<feBlend mode="normal" in2="shape" result="effect1_innerShadow_81_138"/>
<feColorMatrix in="SourceAlpha" type="matrix" values="0 0 0 0 0 0 0 0 0 0 0 0 0 0 0 0 0 0 127 0" result="hardAlpha"/>
<feOffset dx="-1" dy="-1"/>
<feGaussianBlur stdDeviation="1"/>
<feComposite in2="hardAlpha" operator="arithmetic" k2="-1" k3="1"/>
<feColorMatrix type="matrix" values="0 0 0 0 1 0 0 0 0 1 0 0 0 0 1 0 0 0 0.2 0"/>
<feBlend mode="normal" in2="effect1_innerShadow_81_138" result="effect2_innerShadow_81_138"/>
</filter>
<linearGradient id="paint0_linear_81_138" x1="199.712" y1="350.551" x2="199.712" y2="604.551" gradientUnits="userSpaceOnUse">
<stop offset="0.418269" stop-color="white"/>
<stop offset="1" stop-color="#525252" stop-opacity="0"/>
</linearGradient>
</defs>
</svg>
