<svg width="171" height="167" viewBox="0 0 171 167" fill="none" xmlns="http://www.w3.org/2000/svg">
<g filter="url(#filter0_d_7_27)">
<rect x="5" y="1" width="161" height="157" rx="33" fill="white" shape-rendering="crispEdges"/>
<path d="M70.2478 37.5967C67.3551 38.8068 48.0058 51.8902 49.1789 53.0584C50.352 54.2265 51.8494 53.3564 52.4428 53.0584C53.0363 52.7604 67.8237 45.2434 70.5446 46.2194C73.2655 47.1955 85.0849 52.1663 85.0852 53.0584C85.0855 53.9505 77.2651 67.4378 76.1828 68.223C66.3899 70.6024 66.9834 81.3071 74.4021 84.5779C80.9305 89.038 89.8332 92.6056 89.8332 92.6056C89.8332 92.6056 88.3495 94.687 69.3576 117.88C68.549 118.867 71.5856 118.623 72.6218 117.88C92.5039 103.607 98.7356 98.5525 100.219 95.8764C101.703 93.2003 103.268 90.162 101.703 88.1454C97.5486 82.7932 85.9754 75.6567 85.9754 75.6567C93.6102 68.0502 96.8198 63.337 100.219 53.9504C100.219 53.9504 101.703 48.8963 94.2844 45.0308C85.5683 40.4894 73.1405 36.3866 70.2478 37.5967Z" fill="#121212"/>
<path d="M102.593 60.4923C104.579 57.5722 105.227 55.6658 104.671 51.2745C104.671 51.2745 112.683 55.4374 113.87 55.7347C115.057 56.0321 129.597 44.1382 131.378 43.8409C133.158 43.5436 133.158 45.3276 132.565 46.2197C131.971 47.1117 115.057 64.3578 113.87 64.6551C112.683 64.9524 106.736 62.9222 102.593 60.4923Z" fill="#121212"/>
<path d="M112.683 33.7311C112.683 38.8219 108.564 42.9489 103.484 42.9489C98.403 42.9489 94.2844 38.8219 94.2844 33.7311C94.2844 28.6403 98.403 24.5134 103.484 24.5134C108.564 24.5134 112.683 28.6403 112.683 33.7311Z" fill="#121212"/>
<path d="M66.39 83.0905C69.1182 86.2929 71.0654 87.6625 74.9957 89.6321C74.9957 89.6321 63.7193 104.202 63.1258 104.202C62.5323 104.202 60.7518 97.0658 60.7518 97.0658C70.2477 97.6605 69.951 88.1454 63.7193 87.8481L66.39 83.0905Z" fill="#121212"/>
<path d="M63.1258 94.687C64.6008 94.687 65.7965 93.4889 65.7965 92.0109C65.7965 90.5329 64.6008 89.3348 63.1258 89.3348C61.6508 89.3348 60.4551 90.5329 60.4551 92.0109C60.4551 93.4889 61.6508 94.687 63.1258 94.687Z" fill="#E30613"/>
<path d="M75.8173 76.0634C76.7408 76.6415 76.98 78.127 76.1639 79.4361C75.3478 80.7445 73.9106 81.181 72.9871 80.6023C72.0637 80.0243 71.8245 78.5388 72.6406 77.2301C73.4566 75.9213 74.8939 75.4853 75.8173 76.0634Z" fill="#E30613"/>
<path d="M80.7686 71.1721C81.5448 71.7808 81.6826 72.8966 81.0837 73.6634C80.4849 74.4299 79.3712 74.5637 78.595 73.955C77.8189 73.3463 77.6808 72.2309 78.2795 71.4642C78.8783 70.6975 79.9924 70.5634 80.7686 71.1721Z" fill="#E30613"/>
<path d="M85.4832 66.0271C85.7409 66.2292 85.8774 66.6121 85.8183 67.1379C85.7597 67.6582 85.5105 68.2687 85.0696 68.8333C84.6287 69.3978 84.0968 69.7873 83.6068 69.9693C83.1118 70.1531 82.7082 70.1118 82.4505 69.9099C82.1929 69.7078 82.0556 69.325 82.1147 68.7992C82.1733 68.2789 82.4228 67.668 82.8637 67.1034C83.3047 66.5388 83.8362 66.1498 84.3262 65.9678C84.8216 65.7839 85.2255 65.825 85.4832 66.0271Z" fill="#E30613"/>
<path d="M88.9257 60.1995C89.4225 60.4506 89.6516 61.2103 89.2747 61.9595C88.8984 62.7086 88.1524 62.9755 87.6557 62.7248C87.1588 62.4738 86.9289 61.7143 87.3056 60.9651C87.6824 60.2158 88.4284 59.9486 88.9257 60.1995Z" fill="#E30613"/>
<path d="M91.6137 58.4108C92.1053 58.4108 92.5039 58.0115 92.5039 57.5188C92.5039 57.0261 92.1053 56.6268 91.6137 56.6268C91.122 56.6268 90.7234 57.0261 90.7234 57.5188C90.7234 58.0115 91.122 58.4108 91.6137 58.4108Z" fill="#E30613"/>
<path d="M58.3769 99.9732C59.5729 100.753 59.848 102.615 58.8364 104.174C57.8247 105.733 56.0139 106.237 54.8179 105.457C53.6219 104.678 53.3468 102.815 54.3585 101.257C55.3701 99.6979 57.1809 99.1942 58.3769 99.9732Z" fill="#E30613"/>
<path d="M51.4061 108.417C52.7655 109.336 53.0187 111.521 51.7926 113.341C50.5666 115.162 48.4498 115.744 47.0904 114.825C45.731 113.906 45.4778 111.721 46.7039 109.9C47.93 108.08 50.0467 107.497 51.4061 108.417Z" fill="#E30613"/>
<path d="M41.4991 119.218C42.8758 119.671 43.6304 121.292 43.1104 122.878C42.5904 124.464 41.0237 125.321 39.647 124.868C38.2703 124.414 37.5158 122.794 38.0357 121.208C38.5557 119.622 40.1225 118.765 41.4991 119.218Z" fill="#E30613"/>
<path d="M33.1931 128.125C34.5608 128.531 35.3526 130.239 34.8245 132.022C34.2964 133.805 32.703 134.803 31.3353 134.396C29.9677 133.99 29.1758 132.282 29.7039 130.499C30.232 128.716 31.8255 127.718 33.1931 128.125Z" fill="#E30613"/>
<path d="M58.9714 66.7365H30.4837C29.6643 66.7365 29 67.4021 29 68.2232C29 69.0443 29.6643 69.71 30.4837 69.71H58.9714C59.7908 69.71 60.4551 69.0443 60.4551 68.2232C60.4551 67.4021 59.7908 66.7365 58.9714 66.7365Z" fill="#E30613"/>
<path d="M52.443 77.441H37.0121C36.1927 77.441 35.5284 78.1066 35.5284 78.9277C35.5284 79.7488 36.1927 80.4144 37.0121 80.4144H52.443C53.2624 80.4144 53.9267 79.7488 53.9267 78.9277C53.9267 78.1066 53.2624 77.441 52.443 77.441Z" fill="#E30613"/>
<path d="M142 78.9956H124.012L98.6161 106.741L124.012 134.487H142L116.605 106.741L142 78.9956Z" fill="#E30613"/>
</g>
<defs>
<filter id="filter0_d_7_27" x="0" y="0" width="171" height="167" filterUnits="userSpaceOnUse" color-interpolation-filters="sRGB">
<feFlood flood-opacity="0" result="BackgroundImageFix"/>
<feColorMatrix in="SourceAlpha" type="matrix" values="0 0 0 0 0 0 0 0 0 0 0 0 0 0 0 0 0 0 127 0" result="hardAlpha"/>
<feOffset dy="4"/>
<feGaussianBlur stdDeviation="2.5"/>
<feComposite in2="hardAlpha" operator="out"/>
<feColorMatrix type="matrix" values="0 0 0 0 0 0 0 0 0 0 0 0 0 0 0 0 0 0 0.25 0"/>
<feBlend mode="normal" in2="BackgroundImageFix" result="effect1_dropShadow_7_27"/>
<feBlend mode="normal" in="SourceGraphic" in2="effect1_dropShadow_7_27" result="shape"/>
</filter>
</defs>
</svg>
