<svg width="161" height="157" viewBox="0 0 161 157" fill="none" xmlns="http://www.w3.org/2000/svg">
<path d="M65.2478 36.5967C62.3551 37.8068 43.0058 50.8902 44.1789 52.0584C45.352 53.2265 46.8494 52.3564 47.4428 52.0584C48.0363 51.7604 62.8237 44.2434 65.5446 45.2194C68.2655 46.1955 80.0849 51.1663 80.0852 52.0584C80.0855 52.9505 72.2651 66.4378 71.1828 67.223C61.3899 69.6024 61.9834 80.3071 69.4021 83.5779C75.9305 88.038 84.8332 91.6056 84.8332 91.6056C84.8332 91.6056 83.3495 93.687 64.3576 116.88C63.549 117.867 66.5856 117.623 67.6218 116.88C87.5039 102.607 93.7356 97.5525 95.2193 94.8764C96.7031 92.2003 98.2681 89.162 96.703 87.1454C92.5486 81.7932 80.9754 74.6567 80.9754 74.6567C88.6102 67.0502 91.8198 62.337 95.2193 52.9504C95.2193 52.9504 96.703 47.8963 89.2844 44.0308C80.5683 39.4894 68.1405 35.3866 65.2478 36.5967Z" fill="white"/>
<path d="M97.5933 59.4923C99.5785 56.5722 100.227 54.6658 99.6705 50.2745C99.6705 50.2745 107.683 54.4374 108.87 54.7347C110.057 55.0321 124.597 43.1382 126.378 42.8409C128.158 42.5436 128.158 44.3276 127.565 45.2197C126.971 46.1117 110.057 63.3578 108.87 63.6551C107.683 63.9524 101.736 61.9222 97.5933 59.4923Z" fill="white"/>
<path d="M107.683 32.7311C107.683 37.8219 103.564 41.9489 98.4835 41.9489C93.403 41.9489 89.2844 37.8219 89.2844 32.7311C89.2844 27.6403 93.403 23.5134 98.4835 23.5134C103.564 23.5134 107.683 27.6403 107.683 32.7311Z" fill="white"/>
<path d="M61.39 82.0905C64.1182 85.2929 66.0654 86.6625 69.9957 88.6321C69.9957 88.6321 58.7193 103.202 58.1258 103.202C57.5323 103.202 55.7518 96.0658 55.7518 96.0658C65.2477 96.6605 64.951 87.1454 58.7193 86.8481L61.39 82.0905Z" fill="white"/>
<path d="M58.1258 93.687C59.6008 93.687 60.7965 92.4889 60.7965 91.0109C60.7965 89.5329 59.6008 88.3348 58.1258 88.3348C56.6508 88.3348 55.4551 89.5329 55.4551 91.0109C55.4551 92.4889 56.6508 93.687 58.1258 93.687Z" fill="#E30613"/>
<path d="M70.8173 75.0634C71.7408 75.6415 71.98 77.127 71.1639 78.4361C70.3478 79.7445 68.9106 80.181 67.9871 79.6023C67.0637 79.0243 66.8245 77.5388 67.6406 76.2301C68.4566 74.9213 69.8939 74.4853 70.8173 75.0634Z" fill="#E30613"/>
<path d="M75.7686 70.1721C76.5448 70.7808 76.6826 71.8966 76.0837 72.6634C75.4849 73.4299 74.3712 73.5637 73.595 72.955C72.8189 72.3463 72.6808 71.2309 73.2795 70.4642C73.8783 69.6975 74.9924 69.5634 75.7686 70.1721Z" fill="#E30613"/>
<path d="M80.4832 65.0271C80.7409 65.2292 80.8774 65.6121 80.8183 66.1379C80.7597 66.6582 80.5105 67.2687 80.0696 67.8333C79.6287 68.3978 79.0968 68.7873 78.6068 68.9693C78.1118 69.1531 77.7082 69.1118 77.4505 68.9099C77.1929 68.7078 77.0556 68.325 77.1147 67.7992C77.1733 67.2789 77.4228 66.668 77.8637 66.1034C78.3047 65.5388 78.8362 65.1498 79.3262 64.9678C79.8216 64.7839 80.2255 64.825 80.4832 65.0271Z" fill="#E30613"/>
<path d="M83.9257 59.1995C84.4225 59.4506 84.6516 60.2103 84.2747 60.9595C83.8984 61.7086 83.1524 61.9755 82.6557 61.7248C82.1588 61.4738 81.9289 60.7143 82.3056 59.9651C82.6824 59.2158 83.4284 58.9486 83.9257 59.1995Z" fill="#E30613"/>
<path d="M86.6137 57.4108C87.1053 57.4108 87.5039 57.0115 87.5039 56.5188C87.5039 56.0261 87.1053 55.6268 86.6137 55.6268C86.122 55.6268 85.7234 56.0261 85.7234 56.5188C85.7234 57.0115 86.122 57.4108 86.6137 57.4108Z" fill="#E30613"/>
<path d="M53.3769 98.9732C54.5729 99.7529 54.848 101.615 53.8364 103.174C52.8247 104.733 51.0139 105.237 49.8179 104.457C48.6219 103.678 48.3468 101.815 49.3585 100.257C50.3701 98.6979 52.1809 98.1942 53.3769 98.9732Z" fill="#E30613"/>
<path d="M46.4061 107.417C47.7655 108.336 48.0187 110.521 46.7926 112.341C45.5666 114.162 43.4498 114.744 42.0904 113.825C40.731 112.906 40.4778 110.721 41.7039 108.9C42.93 107.08 45.0467 106.497 46.4061 107.417Z" fill="#E30613"/>
<path d="M36.4991 118.218C37.8758 118.671 38.6304 120.292 38.1104 121.878C37.5904 123.464 36.0237 124.321 34.647 123.868C33.2703 123.414 32.5158 121.794 33.0357 120.208C33.5557 118.622 35.1225 117.765 36.4991 118.218Z" fill="#E30613"/>
<path d="M28.1931 127.125C29.5608 127.531 30.3526 129.239 29.8245 131.022C29.2964 132.805 27.703 133.803 26.3353 133.396C24.9677 132.99 24.1758 131.282 24.7039 129.499C25.232 127.716 26.8255 126.718 28.1931 127.125Z" fill="#E30613"/>
<path d="M53.9714 65.7365H25.4837C24.6643 65.7365 24 66.4021 24 67.2232C24 68.0443 24.6643 68.71 25.4837 68.71H53.9714C54.7908 68.71 55.4551 68.0443 55.4551 67.2232C55.4551 66.4021 54.7908 65.7365 53.9714 65.7365Z" fill="#E30613"/>
<path d="M47.443 76.441H32.0121C31.1927 76.441 30.5284 77.1066 30.5284 77.9277C30.5284 78.7488 31.1927 79.4144 32.0121 79.4144H47.443C48.2624 79.4144 48.9267 78.7488 48.9267 77.9277C48.9267 77.1066 48.2624 76.441 47.443 76.441Z" fill="#E30613"/>
<path d="M137 77.9956H119.012L93.6161 105.741L119.012 133.487H137L111.605 105.741L137 77.9956Z" fill="#E30613"/>
</svg>
