<svg width="911" height="226" viewBox="0 0 911 226" fill="none" xmlns="http://www.w3.org/2000/svg">
<path d="M195.883 112.617L302.572 0H353.373L216.383 140.494L195.883 136.543V112.617Z" fill="#121212"/>
<path d="M77.5972 32.9383C72.1553 35.2102 35.7545 59.7738 37.9614 61.9669C40.1682 64.1601 42.9853 62.5264 44.1017 61.9669C45.2181 61.4074 73.0368 47.2947 78.1555 49.1271C83.2743 50.9596 105.509 60.292 105.51 61.9669C105.511 63.6418 90.7985 88.9636 88.7623 90.4378C70.3396 94.905 71.4561 115.002 85.4124 121.143C97.6939 129.517 114.442 136.215 114.442 136.215C114.442 136.215 111.651 140.123 75.9225 183.666C74.4014 185.52 80.1139 185.062 82.0633 183.666C119.466 156.87 131.19 147.38 133.981 142.356C136.772 137.331 139.716 131.627 136.772 127.841C128.957 117.793 107.185 104.394 107.185 104.394C121.547 90.1133 127.586 81.2646 133.981 63.6417C133.981 63.6417 136.772 54.1527 122.816 46.8954C106.419 38.3692 83.039 30.6665 77.5972 32.9383Z" fill="#121212"/>
<path d="M138.447 75.9237C142.182 70.4414 143.401 66.8622 142.355 58.6178C142.355 58.6178 157.427 66.4334 159.661 66.9916C161.894 67.5499 189.248 45.2198 192.597 44.6615C195.947 44.1033 195.947 47.4528 194.83 49.1276C193.714 50.8023 161.894 83.181 159.661 83.7392C157.427 84.2975 146.241 80.4857 138.447 75.9237Z" fill="#121212"/>
<path d="M157.428 25.681C157.428 35.2387 149.679 42.9868 140.122 42.9868C130.564 42.9868 122.816 35.2387 122.816 25.681C122.816 16.1232 130.564 8.37513 140.122 8.37513C149.679 8.37513 157.428 16.1232 157.428 25.681Z" fill="#121212"/>
<path d="M70.3398 118.351C75.4721 124.363 79.1354 126.935 86.5291 130.632C86.5291 130.632 65.3155 157.987 64.199 157.987C63.0825 157.987 59.733 144.589 59.733 144.589C77.597 145.705 77.0388 127.841 65.3155 127.283L70.3398 118.351Z" fill="#121212"/>
<path d="M111.651 201.529H156.869L216.383 140.494L195.883 136.543V112.617L111.651 201.529Z" fill="#E30613"/>
<path d="M236.699 145.147L311.505 224.977H357.84C357.282 221.628 263.495 118.351 263.495 118.351L236.699 145.147Z" fill="#E30613"/>
<path d="M64.199 140.123C66.9738 140.123 69.2233 137.873 69.2233 135.098C69.2233 132.324 66.9738 130.074 64.199 130.074C61.4242 130.074 59.1747 132.324 59.1747 135.098C59.1747 137.873 61.4242 140.123 64.199 140.123Z" fill="#E30613"/>
<path d="M88.0748 105.158C89.8121 106.243 90.262 109.032 88.7268 111.49C87.1915 113.946 84.4878 114.766 82.7505 113.679C81.0133 112.594 80.5633 109.805 82.0986 107.348C83.6338 104.891 86.3376 104.072 88.0748 105.158Z" fill="#E30613"/>
<path d="M97.3893 95.9745C98.8496 97.1174 99.1088 99.2123 97.9822 100.652C96.8556 102.091 94.7604 102.342 93.3003 101.199C91.8402 100.057 91.5805 97.9625 92.7067 96.523C93.8333 95.0836 95.9292 94.8318 97.3893 95.9745Z" fill="#E30613"/>
<path d="M106.259 86.3151C106.743 86.6946 107 87.4134 106.889 88.4005C106.779 89.3774 106.31 90.5237 105.481 91.5835C104.651 92.6434 103.651 93.3746 102.729 93.7163C101.797 94.0614 101.038 93.9839 100.554 93.6049C100.069 93.2255 99.8106 92.5068 99.9218 91.5196C100.032 90.5426 100.501 89.3958 101.331 88.3357C102.16 87.2758 103.16 86.5454 104.082 86.2038C105.014 85.8584 105.774 85.9356 106.259 86.3151Z" fill="#E30613"/>
<path d="M112.735 75.3741C113.669 75.8454 114.1 77.2717 113.391 78.6783C112.684 80.0848 111.28 80.5859 110.346 80.1151C109.411 79.644 108.978 78.2181 109.687 76.8114C110.396 75.4046 111.799 74.9031 112.735 75.3741Z" fill="#E30613"/>
<path d="M117.792 72.0159C118.717 72.0159 119.466 71.2661 119.466 70.3411C119.466 69.4162 118.717 68.6664 117.792 68.6664C116.867 68.6664 116.117 69.4162 116.117 70.3411C116.117 71.2661 116.867 72.0159 117.792 72.0159Z" fill="#E30613"/>
<path d="M55.2651 150.047C57.515 151.511 58.0327 155.008 56.1295 157.934C54.2263 160.862 50.8197 161.806 48.5697 160.344C46.3197 158.88 45.8022 155.383 47.7054 152.457C49.6086 149.53 53.0152 148.585 55.2651 150.047Z" fill="#E30613"/>
<path d="M42.1514 165.899C44.7086 167.626 45.185 171.728 42.8784 175.145C40.572 178.563 36.5898 179.657 34.0325 177.931C31.4751 176.206 30.9988 172.104 33.3053 168.685C35.6119 165.268 39.594 164.173 42.1514 165.899Z" fill="#E30613"/>
<path d="M23.5139 186.179C26.1037 187.029 27.5233 190.072 26.5451 193.049C25.5669 196.028 22.6195 197.636 20.0296 196.785C17.4398 195.935 16.0203 192.892 16.9984 189.914C17.9766 186.937 20.9242 185.328 23.5139 186.179Z" fill="#E30613"/>
<path d="M7.8883 202.9C10.4612 203.664 11.9508 206.871 10.9573 210.218C9.96388 213.564 6.96619 215.439 4.3933 214.675C1.82042 213.911 0.330798 210.705 1.32426 207.357C2.31773 204.011 5.31541 202.137 7.8883 202.9Z" fill="#E30613"/>
<path d="M56.3835 87.647H2.79126C1.24969 87.647 0 88.8967 0 90.4382C0 91.9798 1.24969 93.2295 2.79126 93.2295H56.3835C57.9251 93.2295 59.1748 91.9798 59.1748 90.4382C59.1748 88.8967 57.9251 87.647 56.3835 87.647Z" fill="#E30613"/>
<path d="M44.1019 107.744H15.0728C13.5312 107.744 12.2815 108.994 12.2815 110.535C12.2815 112.077 13.5312 113.327 15.0728 113.327H44.1019C45.6435 113.327 46.8932 112.077 46.8932 110.535C46.8932 108.994 45.6435 107.744 44.1019 107.744Z" fill="#E30613"/>
<path d="M368.763 181.043V70.843H384.343V181.043H368.763ZM368.763 50.323V34.743H384.343V50.323H368.763Z" fill="#121212"/>
<path d="M405.881 181.043V70.843H495.181C499.361 70.843 503.161 71.9196 506.581 74.073C510.128 76.0996 512.914 78.8863 514.941 82.433C517.094 85.853 518.171 89.653 518.171 93.833V181.043H502.591V93.833C502.591 91.8063 501.831 90.0963 500.311 88.703C498.918 87.183 497.208 86.423 495.181 86.423H429.061C427.034 86.423 425.261 87.183 423.741 88.703C422.221 90.0963 421.461 91.8063 421.461 93.833V181.043H405.881Z" fill="#121212"/>
<path d="M560.596 181.043C556.416 181.043 552.553 180.03 549.006 178.003C545.586 175.85 542.799 173.063 540.646 169.643C538.619 166.096 537.606 162.233 537.606 158.053V93.833C537.606 89.653 538.619 85.853 540.646 82.433C542.799 78.8863 545.586 76.0996 549.006 74.073C552.553 71.9196 556.416 70.843 560.596 70.843H626.716C631.023 70.843 634.886 71.9196 638.306 74.073C641.853 76.0996 644.639 78.8863 646.666 82.433C648.819 85.853 649.896 89.653 649.896 93.833V133.733H553.186V158.053C553.186 160.08 553.883 161.853 555.276 163.373C556.796 164.766 558.569 165.463 560.596 165.463H649.896V181.043H560.596ZM553.186 118.153H634.126V93.833C634.126 91.8063 633.366 90.0963 631.846 88.703C630.453 87.183 628.743 86.423 626.716 86.423H560.596C558.569 86.423 556.796 87.183 555.276 88.703C553.883 90.0963 553.186 91.8063 553.186 93.833V118.153Z" fill="#121212"/>
<path d="M665.054 181.043V180.853L711.034 124.993L665.054 71.033V70.843H685.574L721.294 112.643L757.204 70.843H777.534V71.033L731.554 124.993L777.724 180.853V181.043H757.204L721.294 136.963L685.574 181.043H665.054Z" fill="#121212"/>
<path d="M820.737 181.043C816.557 181.043 812.694 180.03 809.147 178.003C805.727 175.85 802.94 173.063 800.787 169.643C798.76 166.096 797.747 162.233 797.747 158.053V118.153H894.267V93.833C894.267 91.8063 893.507 90.0963 891.987 88.703C890.594 87.183 888.884 86.423 886.857 86.423H797.747V70.843H886.857C891.164 70.843 895.027 71.9196 898.447 74.073C901.994 76.0996 904.78 78.8863 906.807 82.433C908.96 85.853 910.037 89.653 910.037 93.833V181.043H820.737ZM820.737 165.463H894.267V133.733H813.327V158.053C813.327 160.08 814.024 161.853 815.417 163.373C816.937 164.766 818.71 165.463 820.737 165.463Z" fill="#121212"/>
<path d="M390.734 225.043V207.875H394.484L399.676 220.273L404.902 207.875H408.605V225.043H405.676V216.559L405.769 211.695L405.336 212.984L400.941 223.871H398.223L393.922 212.926L393.488 211.637L393.594 216.605V225.043H390.734Z" fill="#E30613"/>
<path d="M419.594 221.07C420.446 222.156 421.704 222.699 423.368 222.699C425.032 222.699 426.286 222.16 427.129 221.082C427.981 219.996 428.407 218.465 428.407 216.488C428.407 214.488 427.981 212.938 427.129 211.836C426.286 210.734 425.036 210.184 423.379 210.184C421.715 210.184 420.454 210.738 419.594 211.848C418.743 212.949 418.317 214.496 418.317 216.488C418.317 218.457 418.743 219.984 419.594 221.07ZM423.356 225.289C420.77 225.289 418.727 224.508 417.227 222.945C415.735 221.375 414.989 219.211 414.989 216.453C414.989 213.68 415.739 211.516 417.239 209.961C418.739 208.406 420.782 207.629 423.368 207.629C425.954 207.629 427.993 208.41 429.485 209.973C430.977 211.527 431.723 213.691 431.723 216.465C431.723 219.207 430.973 221.363 429.473 222.934C427.973 224.504 425.934 225.289 423.356 225.289Z" fill="#E30613"/>
<path d="M441.88 225.043L435.634 207.875H438.903L442.536 218.48C442.677 218.848 443.001 219.922 443.509 221.703C443.54 221.578 443.685 221.066 443.943 220.168C444.2 219.262 444.368 218.707 444.446 218.504C444.54 218.238 445.134 216.477 446.228 213.219C447.321 209.953 447.919 208.172 448.021 207.875H451.255L445.091 225.043H441.88Z" fill="#E30613"/>
<path d="M456.49 225.043V207.875H459.666V225.043H456.49Z" fill="#E30613"/>
<path d="M466.823 225.043V207.875H470.573L475.764 220.273L480.991 207.875H484.694V225.043H481.764V216.559L481.858 211.695L481.424 212.984L477.03 223.871H474.311L470.01 212.926L469.577 211.637L469.682 216.605V225.043H466.823Z" fill="#E30613"/>
<path d="M491.769 225.043V207.875H502.175L502.046 210.395H494.944V214.824H501.694V217.344H494.944V222.512H502.304L502.198 225.043H491.769Z" fill="#E30613"/>
<path d="M508.629 225.043V207.875H512.004C512.613 208.828 513.851 210.75 515.718 213.641C517.586 216.531 518.722 218.289 519.129 218.914C519.246 219.094 519.445 219.398 519.726 219.828C520.015 220.25 520.218 220.551 520.336 220.73C520.281 218.051 520.254 216.66 520.254 216.559V207.875H523.148V225.043H519.726L511.98 212.973L511.418 212.047C511.48 214.109 511.511 215.559 511.511 216.395V225.043H508.629Z" fill="#E30613"/>
<path d="M533.516 225.043V210.418H528.512V207.875H541.684V210.418H536.703V225.043H533.516Z" fill="#E30613"/>
<path d="M550.903 221.07C551.755 222.156 553.013 222.699 554.677 222.699C556.341 222.699 557.595 222.16 558.438 221.082C559.29 219.996 559.716 218.465 559.716 216.488C559.716 214.488 559.29 212.938 558.438 211.836C557.595 210.734 556.345 210.184 554.688 210.184C553.024 210.184 551.763 210.738 550.903 211.848C550.052 212.949 549.626 214.496 549.626 216.488C549.626 218.457 550.052 219.984 550.903 221.07ZM554.665 225.289C552.079 225.289 550.036 224.508 548.536 222.945C547.044 221.375 546.298 219.211 546.298 216.453C546.298 213.68 547.048 211.516 548.548 209.961C550.048 208.406 552.091 207.629 554.677 207.629C557.263 207.629 559.302 208.41 560.794 209.973C562.286 211.527 563.032 213.691 563.032 216.465C563.032 219.207 562.282 221.363 560.782 222.934C559.282 224.504 557.243 225.289 554.665 225.289Z" fill="#E30613"/>
<path d="M570.259 225.254C569.752 225.254 569.322 225.078 568.97 224.727C568.619 224.375 568.443 223.957 568.443 223.473C568.443 222.98 568.615 222.555 568.959 222.195C569.31 221.836 569.744 221.656 570.259 221.656C570.759 221.656 571.181 221.836 571.525 222.195C571.869 222.555 572.041 222.98 572.041 223.473C572.041 223.957 571.869 224.375 571.525 224.727C571.181 225.078 570.759 225.254 570.259 225.254Z" fill="#E30613"/>
<path d="M591.054 222.5H593.327C595.288 222.5 596.78 221.988 597.804 220.965C598.827 219.934 599.339 218.434 599.339 216.465C599.339 214.355 598.811 212.824 597.757 211.871C596.702 210.91 595.112 210.43 592.987 210.43H591.054V222.5ZM587.878 225.043V207.875H592.847C594.347 207.875 595.69 208.047 596.878 208.391C598.065 208.734 599.085 209.254 599.936 209.949C600.796 210.637 601.452 211.527 601.905 212.621C602.366 213.707 602.597 214.965 602.597 216.395C602.597 219.168 601.761 221.305 600.089 222.805C598.417 224.297 596.1 225.043 593.14 225.043H587.878Z" fill="#E30613"/>
<path d="M606.472 225.043L612.789 207.863H616.246L622.468 225.043H619.211L617.511 220.191H611.5L609.789 225.043H606.472ZM612.296 217.824H616.703C615.296 213.316 614.574 210.988 614.535 210.84L612.296 217.824Z" fill="#E30613"/>
<path d="M630.75 222.5H633.024C634.985 222.5 636.477 221.988 637.5 220.965C638.524 219.934 639.035 218.434 639.035 216.465C639.035 214.355 638.508 212.824 637.453 211.871C636.399 210.91 634.809 210.43 632.684 210.43H630.75V222.5ZM627.574 225.043V207.875H632.543C634.043 207.875 635.387 208.047 636.574 208.391C637.762 208.734 638.781 209.254 639.633 209.949C640.492 210.637 641.149 211.527 641.602 212.621C642.063 213.707 642.293 214.965 642.293 216.395C642.293 219.168 641.457 221.305 639.785 222.805C638.113 224.297 635.797 225.043 632.836 225.043H627.574Z" fill="#E30613"/>
<path d="M652.579 221.07C653.431 222.156 654.688 222.699 656.352 222.699C658.016 222.699 659.27 222.16 660.114 221.082C660.966 219.996 661.391 218.465 661.391 216.488C661.391 214.488 660.966 212.938 660.114 211.836C659.27 210.734 658.02 210.184 656.364 210.184C654.7 210.184 653.438 210.738 652.579 211.848C651.727 212.949 651.302 214.496 651.302 216.488C651.302 218.457 651.727 219.984 652.579 221.07ZM656.341 225.289C653.755 225.289 651.712 224.508 650.212 222.945C648.72 221.375 647.974 219.211 647.974 216.453C647.974 213.68 648.724 211.516 650.224 209.961C651.724 208.406 653.766 207.629 656.352 207.629C658.938 207.629 660.977 208.41 662.47 209.973C663.962 211.527 664.708 213.691 664.708 216.465C664.708 219.207 663.958 221.363 662.458 222.934C660.958 224.504 658.919 225.289 656.341 225.289Z" fill="#E30613"/>
<path d="M675.896 225.277C673.826 225.277 671.97 224.801 670.33 223.848L671.103 221.328C671.837 221.734 672.634 222.062 673.494 222.312C674.361 222.562 675.205 222.688 676.025 222.688C677.033 222.688 677.794 222.473 678.31 222.043C678.826 221.605 679.083 220.98 679.083 220.168C679.083 219.09 678.365 218.344 676.927 217.93C676.826 217.898 676.541 217.816 676.072 217.684C675.603 217.543 675.162 217.41 674.748 217.285C674.341 217.152 674.048 217.051 673.869 216.98C671.564 216.168 670.412 214.652 670.412 212.434C670.412 210.879 670.962 209.68 672.064 208.836C673.173 207.992 674.642 207.57 676.47 207.57C678.541 207.57 680.326 207.996 681.826 208.848L680.865 211.168C679.333 210.48 677.912 210.137 676.599 210.137C675.654 210.137 674.939 210.305 674.455 210.641C673.978 210.969 673.724 211.52 673.693 212.293C673.693 213.246 674.166 213.867 675.111 214.156C675.298 214.227 675.759 214.379 676.494 214.613C677.228 214.848 677.705 215 677.923 215.07C679.494 215.586 680.615 216.227 681.287 216.992C681.966 217.758 682.306 218.824 682.306 220.191C682.306 221.824 681.728 223.082 680.572 223.965C679.416 224.84 677.857 225.277 675.896 225.277Z" fill="#E30613"/>
<path d="M689.404 225.254C688.897 225.254 688.467 225.078 688.115 224.727C687.764 224.375 687.588 223.957 687.588 223.473C687.588 222.98 687.76 222.555 688.104 222.195C688.455 221.836 688.889 221.656 689.404 221.656C689.904 221.656 690.326 221.836 690.67 222.195C691.014 222.555 691.186 222.98 691.186 223.473C691.186 223.957 691.014 224.375 690.67 224.727C690.326 225.078 689.904 225.254 689.404 225.254Z" fill="#E30613"/>
<path d="M710.199 222.5H712.472C714.433 222.5 715.925 221.988 716.949 220.965C717.972 219.934 718.484 218.434 718.484 216.465C718.484 214.355 717.956 212.824 716.902 211.871C715.847 210.91 714.257 210.43 712.132 210.43H710.199V222.5ZM707.023 225.043V207.875H711.992C713.492 207.875 714.835 208.047 716.023 208.391C717.21 208.734 718.23 209.254 719.081 209.949C719.941 210.637 720.597 211.527 721.05 212.621C721.511 213.707 721.742 214.965 721.742 216.395C721.742 219.168 720.906 221.305 719.234 222.805C717.562 224.297 715.245 225.043 712.285 225.043H707.023Z" fill="#E30613"/>
<path d="M728.113 225.043V207.875H738.52L738.391 210.395H731.289V214.824H738.039V217.344H731.289V222.512H738.648L738.543 225.043H728.113Z" fill="#E30613"/>
<path d="M749.79 225.277C747.719 225.277 745.864 224.801 744.223 223.848L744.997 221.328C745.731 221.734 746.528 222.062 747.387 222.312C748.255 222.562 749.098 222.688 749.919 222.688C750.926 222.688 751.688 222.473 752.204 222.043C752.719 221.605 752.977 220.98 752.977 220.168C752.977 219.09 752.258 218.344 750.821 217.93C750.719 217.898 750.434 217.816 749.966 217.684C749.497 217.543 749.055 217.41 748.641 217.285C748.235 217.152 747.942 217.051 747.762 216.98C745.458 216.168 744.305 214.652 744.305 212.434C744.305 210.879 744.856 209.68 745.958 208.836C747.067 207.992 748.536 207.57 750.364 207.57C752.434 207.57 754.219 207.996 755.719 208.848L754.758 211.168C753.227 210.48 751.805 210.137 750.493 210.137C749.548 210.137 748.833 210.305 748.348 210.641C747.872 210.969 747.618 211.52 747.587 212.293C747.587 213.246 748.059 213.867 749.005 214.156C749.192 214.227 749.653 214.379 750.387 214.613C751.122 214.848 751.598 215 751.817 215.07C753.387 215.586 754.508 216.227 755.18 216.992C755.86 217.758 756.2 218.824 756.2 220.191C756.2 221.824 755.622 223.082 754.466 223.965C753.309 224.84 751.751 225.277 749.79 225.277Z" fill="#E30613"/>
<path d="M762.279 225.043V207.875H772.685L772.556 210.395H765.454V214.824H772.204V217.344H765.454V222.512H772.814L772.708 225.043H762.279Z" fill="#E30613"/>
<path d="M779.139 225.043V207.875H782.889L788.08 220.273L793.307 207.875H797.01V225.043H794.08V216.559L794.174 211.695L793.74 212.984L789.346 223.871H786.627L782.326 212.926L781.893 211.637L781.998 216.605V225.043H779.139Z" fill="#E30613"/>
<path d="M804.003 225.043V207.828H809.721C811.073 207.828 812.229 208.004 813.19 208.355C814.151 208.699 814.909 209.262 815.464 210.043C816.026 210.824 816.307 211.805 816.307 212.984C816.307 213.805 816.202 214.535 815.991 215.176C815.78 215.809 815.432 216.387 814.948 216.91C814.464 217.426 813.78 217.824 812.897 218.105C812.022 218.387 810.964 218.527 809.721 218.527C808.659 218.527 807.796 218.496 807.131 218.434V225.043H804.003ZM809.381 216.23C810.03 216.23 810.592 216.168 811.069 216.043C811.553 215.918 811.928 215.758 812.194 215.562C812.467 215.367 812.682 215.125 812.839 214.836C813.003 214.547 813.108 214.27 813.155 214.004C813.21 213.73 813.237 213.426 813.237 213.09C813.237 212.145 812.932 211.426 812.323 210.934C811.714 210.441 810.854 210.195 809.745 210.195H807.131V216.207C807.225 216.223 807.975 216.23 809.381 216.23Z" fill="#E30613"/>
<path d="M822.046 225.043V207.875H832.452L832.323 210.395H825.222V214.824H831.972V217.344H825.222V222.512H832.581L832.476 225.043H822.046Z" fill="#E30613"/>
<path d="M838.906 225.043V207.875H842.281C842.891 208.828 844.129 210.75 845.996 213.641C847.863 216.531 849 218.289 849.406 218.914C849.523 219.094 849.723 219.398 850.004 219.828C850.293 220.25 850.496 220.551 850.613 220.73C850.558 218.051 850.531 216.66 850.531 216.559V207.875H853.426V225.043H850.004L842.258 212.973L841.695 212.047C841.758 214.109 841.789 215.559 841.789 216.395V225.043H838.906Z" fill="#E30613"/>
<path d="M860.477 225.043V207.875H863.653V214.895H871.411V207.875H874.586V225.043H871.411V217.402H863.653V225.043H860.477Z" fill="#E30613"/>
<path d="M885.564 221.07C886.415 222.156 887.673 222.699 889.337 222.699C891.001 222.699 892.255 222.16 893.099 221.082C893.95 219.996 894.376 218.465 894.376 216.488C894.376 214.488 893.95 212.938 893.099 211.836C892.255 210.734 891.005 210.184 889.349 210.184C887.685 210.184 886.423 210.738 885.564 211.848C884.712 212.949 884.286 214.496 884.286 216.488C884.286 218.457 884.712 219.984 885.564 221.07ZM889.325 225.289C886.739 225.289 884.696 224.508 883.196 222.945C881.704 221.375 880.958 219.211 880.958 216.453C880.958 213.68 881.708 211.516 883.208 209.961C884.708 208.406 886.751 207.629 889.337 207.629C891.923 207.629 893.962 208.41 895.454 209.973C896.946 211.527 897.693 213.691 897.693 216.465C897.693 219.207 896.943 221.363 895.443 222.934C893.943 224.504 891.903 225.289 889.325 225.289Z" fill="#E30613"/>
<path d="M904.92 225.254C904.412 225.254 903.982 225.078 903.631 224.727C903.279 224.375 903.103 223.957 903.103 223.473C903.103 222.98 903.275 222.555 903.619 222.195C903.971 221.836 904.404 221.656 904.92 221.656C905.42 221.656 905.842 221.836 906.185 222.195C906.529 222.555 906.701 222.98 906.701 223.473C906.701 223.957 906.529 224.375 906.185 224.727C905.842 225.078 905.42 225.254 904.92 225.254Z" fill="#E30613"/>
</svg>
