<svg width="101" height="101" viewBox="0 0 101 101" fill="none" xmlns="http://www.w3.org/2000/svg">
<path d="M100.15 50.15C100.15 77.7643 77.7641 100.15 50.1499 100.15C22.5357 100.15 0.149902 77.7643 0.149902 50.15C0.149902 22.5358 22.5357 0.150024 50.1499 0.150024C77.7641 0.150024 100.15 22.5358 100.15 50.15Z" fill="#583131"/>
<path d="M89.1499 50.15C89.1499 71.6891 71.689 89.15 50.1499 89.15C28.6108 89.15 11.1499 71.6891 11.1499 50.15C11.1499 28.6109 28.6108 11.15 50.1499 11.15C71.689 11.15 89.1499 28.6109 89.1499 50.15Z" fill="#583131"/>
<path d="M78.1499 50.15C78.1499 65.614 65.6139 78.15 50.1499 78.15C34.6859 78.15 22.1499 65.614 22.1499 50.15C22.1499 34.6861 34.6859 22.15 50.1499 22.15C65.6139 22.15 78.1499 34.6861 78.1499 50.15Z" fill="#583131"/>
<path d="M67.1499 50.15C67.1499 59.5389 59.5387 67.15 50.1499 67.15C40.7611 67.15 33.1499 59.5389 33.1499 50.15C33.1499 40.7612 40.7611 33.15 50.1499 33.15C59.5387 33.15 67.1499 40.7612 67.1499 50.15Z" fill="#583131"/>
<path d="M56.1499 50.15C56.1499 53.4637 53.4636 56.15 50.1499 56.15C46.8362 56.15 44.1499 53.4637 44.1499 50.15C44.1499 46.8363 46.8362 44.15 50.1499 44.15C53.4636 44.15 56.1499 46.8363 56.1499 50.15Z" fill="#583131"/>
<mask id="mask0_80_60" style="mask-type:alpha" maskUnits="userSpaceOnUse" x="0" y="0" width="101" height="101">
<path d="M100.15 50.15C100.15 77.7643 77.7641 100.15 50.1499 100.15C22.5357 100.15 0.149902 77.7643 0.149902 50.15C0.149902 22.5358 22.5357 0.150024 50.1499 0.150024C77.7641 0.150024 100.15 22.5358 100.15 50.15Z" fill="black"/>
<path d="M89.1499 50.15C89.1499 71.6891 71.689 89.15 50.1499 89.15C28.6108 89.15 11.1499 71.6891 11.1499 50.15C11.1499 28.6109 28.6108 11.15 50.1499 11.15C71.689 11.15 89.1499 28.6109 89.1499 50.15Z" fill="black"/>
<path d="M78.1499 50.15C78.1499 65.614 65.6139 78.15 50.1499 78.15C34.6859 78.15 22.1499 65.614 22.1499 50.15C22.1499 34.6861 34.6859 22.15 50.1499 22.15C65.6139 22.15 78.1499 34.6861 78.1499 50.15Z" fill="black"/>
<path d="M67.1499 50.15C67.1499 59.5389 59.5387 67.15 50.1499 67.15C40.7611 67.15 33.1499 59.5389 33.1499 50.15C33.1499 40.7612 40.7611 33.15 50.1499 33.15C59.5387 33.15 67.1499 40.7612 67.1499 50.15Z" fill="black"/>
<path d="M56.1499 50.15C56.1499 53.4637 53.4636 56.15 50.1499 56.15C46.8362 56.15 44.1499 53.4637 44.1499 50.15C44.1499 46.8363 46.8362 44.15 50.1499 44.15C53.4636 44.15 56.1499 46.8363 56.1499 50.15Z" fill="black"/>
<path d="M100.15 50.15C100.15 77.7643 77.7641 100.15 50.1499 100.15C22.5357 100.15 0.149902 77.7643 0.149902 50.15C0.149902 22.5358 22.5357 0.150024 50.1499 0.150024C77.7641 0.150024 100.15 22.5358 100.15 50.15Z" stroke="#FF7676" stroke-width="0.3"/>
<path d="M89.1499 50.15C89.1499 71.6891 71.689 89.15 50.1499 89.15C28.6108 89.15 11.1499 71.6891 11.1499 50.15C11.1499 28.6109 28.6108 11.15 50.1499 11.15C71.689 11.15 89.1499 28.6109 89.1499 50.15Z" stroke="#FF7676" stroke-width="0.3"/>
<path d="M78.1499 50.15C78.1499 65.614 65.6139 78.15 50.1499 78.15C34.6859 78.15 22.1499 65.614 22.1499 50.15C22.1499 34.6861 34.6859 22.15 50.1499 22.15C65.6139 22.15 78.1499 34.6861 78.1499 50.15Z" stroke="#FF7676" stroke-width="0.3"/>
<path d="M67.1499 50.15C67.1499 59.5389 59.5387 67.15 50.1499 67.15C40.7611 67.15 33.1499 59.5389 33.1499 50.15C33.1499 40.7612 40.7611 33.15 50.1499 33.15C59.5387 33.15 67.1499 40.7612 67.1499 50.15Z" stroke="#FF7676" stroke-width="0.3"/>
<path d="M56.1499 50.15C56.1499 53.4637 53.4636 56.15 50.1499 56.15C46.8362 56.15 44.1499 53.4637 44.1499 50.15C44.1499 46.8363 46.8362 44.15 50.1499 44.15C53.4636 44.15 56.1499 46.8363 56.1499 50.15Z" stroke="#FF7676" stroke-width="0.3"/>
</mask>
<g mask="url(#mask0_80_60)">
<path d="M-9.8501 94.1H122.15M-9.8501 83.1H122.15M-9.8501 39.1H122.15M-9.8501 72.1H122.15M-9.8501 28.1H122.15M-9.8501 61.1H122.15M-9.8501 17.1H122.15M-9.8501 50.1H122.15M-9.8501 6.09998H122.15M6.1499 -15.9L6.1499 116.1M17.1499 -15.9L17.1499 116.1M61.1499 -15.9L61.1499 116.1M28.1499 -15.9L28.1499 116.1M72.1499 -15.9L72.1499 116.1M39.1499 -15.9L39.1499 116.1M83.1499 -15.9L83.1499 116.1M50.1499 -15.9L50.1499 116.1M94.1499 -15.9L94.1499 116.1" stroke="#FF7676" stroke-width="0.1"/>
<path d="M50.2999 0.0999756L50.2999 100.1M100.15 50.25L0.149902 50.25" stroke="#FFA4A4" stroke-width="0.15"/>
<path d="M100.15 50.15C100.15 77.7643 77.7641 100.15 50.1499 100.15C22.5357 100.15 0.149902 77.7643 0.149902 50.15C0.149902 22.5358 22.5357 0.150024 50.1499 0.150024C77.7641 0.150024 100.15 22.5358 100.15 50.15Z" stroke="#FFA4A4" stroke-width="0.4"/>
<path d="M89.1499 50.15C89.1499 71.6891 71.689 89.15 50.1499 89.15C28.6108 89.15 11.1499 71.6891 11.1499 50.15C11.1499 28.6109 28.6108 11.15 50.1499 11.15C71.689 11.15 89.1499 28.6109 89.1499 50.15Z" stroke="#FFA4A4" stroke-width="0.4"/>
<path d="M78.1499 50.15C78.1499 65.614 65.6139 78.15 50.1499 78.15C34.6859 78.15 22.1499 65.614 22.1499 50.15C22.1499 34.6861 34.6859 22.15 50.1499 22.15C65.6139 22.15 78.1499 34.6861 78.1499 50.15Z" stroke="#FFA4A4" stroke-width="0.4"/>
<path d="M67.1499 50.15C67.1499 59.5389 59.5387 67.15 50.1499 67.15C40.7611 67.15 33.1499 59.5389 33.1499 50.15C33.1499 40.7612 40.7611 33.15 50.1499 33.15C59.5387 33.15 67.1499 40.7612 67.1499 50.15Z" stroke="#FFA4A4" stroke-width="0.4"/>
<path d="M56.1499 50.15C56.1499 53.4637 53.4636 56.15 50.1499 56.15C46.8362 56.15 44.1499 53.4637 44.1499 50.15C44.1499 46.8363 46.8362 44.15 50.1499 44.15C53.4636 44.15 56.1499 46.8363 56.1499 50.15Z" stroke="#FFA4A4" stroke-width="0.4"/>
</g>
</svg>
